<svg width="217" height="37" viewBox="0 0 217 37" fill="none" xmlns="http://www.w3.org/2000/svg">
<path d="M11.2511 29.2195L0 11.7479L16.4205 16.2664L24.6308 8.7356L27.0635 29.5207L11.2511 29.2195Z" fill="#E70000"/>
<path d="M27.9756 29.5209L25.543 3.31357L29.4961 0L33.4492 3.31357L32.2328 29.5209H27.9756Z" fill="#E70000"/>
<path d="M33.1445 29.5207L34.665 8.7356L42.267 16.2664L39.8344 29.5207H33.1445Z" fill="#E70000"/>
<path d="M41.0508 29.5213L43.4835 16.267L60.2081 11.146L48.0447 29.5213H41.0508Z" fill="#E70000"/>
<path d="M85.1442 29.5217L85.1604 18.777C85.1604 17.5317 84.838 16.5631 84.1934 15.8712C83.5487 15.1688 82.6999 14.8175 81.647 14.8175C81.0023 14.8175 80.4114 14.9665 79.8742 15.2646C79.3477 15.5519 78.9179 15.9883 78.5848 16.5737C78.2625 17.1485 78.1014 17.8722 78.1014 18.745L76.4736 17.9308C76.4521 16.7174 76.71 15.6531 77.2472 14.7377C77.7951 13.8224 78.5365 13.1146 79.4712 12.6143C80.406 12.1034 81.4536 11.848 82.614 11.848C84.4942 11.848 85.9501 12.4068 86.9815 13.5243C88.013 14.6419 88.5287 16.1267 88.5287 17.9787L88.5126 29.5217H85.1442ZM64.2734 29.5217V12.279H67.2711V17.2602H67.6579V29.5217H64.2734ZM74.7169 29.5217L74.733 18.8408C74.733 17.5849 74.4107 16.6003 73.766 15.8872C73.1321 15.1741 72.2779 14.8175 71.2035 14.8175C70.1398 14.8175 69.2803 15.1794 68.6249 15.9032C67.9802 16.6269 67.6579 17.5742 67.6579 18.745L66.0462 17.7232C66.0462 16.595 66.3202 15.5892 66.8682 14.7058C67.4161 13.8224 68.1575 13.1252 69.0923 12.6143C70.027 12.1034 71.0853 11.848 72.2672 11.848C73.5028 11.848 74.5557 12.1087 75.426 12.6303C76.2963 13.1412 76.9571 13.8596 77.4083 14.7856C77.8703 15.7116 78.1014 16.7866 78.1014 18.0106L78.0852 29.5217H74.7169Z" fill="#E70000"/>
<path d="M93.036 29.5217V12.279H96.4043V29.5217H93.036Z" fill="#E70000"/>
<path d="M108.158 30.0006C106.536 30.0006 105.134 29.6015 103.952 28.8032C102.78 28.0049 101.873 26.9193 101.228 25.5463C100.594 24.1626 100.277 22.6086 100.277 20.8844C100.277 19.1495 100.599 17.6008 101.244 16.2385C101.889 14.8654 102.802 13.7851 103.984 12.9975C105.176 12.1992 106.589 11.8001 108.222 11.8001C109.866 11.8001 111.247 12.1992 112.364 12.9975C113.493 13.7851 114.341 14.8654 114.911 16.2385C115.491 17.6115 115.781 19.1601 115.781 20.8844C115.781 22.6086 115.491 24.1573 114.911 25.5303C114.331 26.9033 113.476 27.9943 112.348 28.8032C111.22 29.6015 109.823 30.0006 108.158 30.0006ZM108.625 26.9832C109.732 26.9832 110.635 26.7224 111.333 26.2009C112.031 25.6793 112.542 24.9609 112.864 24.0455C113.186 23.1302 113.348 22.0765 113.348 20.8844C113.348 19.6923 113.181 18.6386 112.848 17.7232C112.526 16.8079 112.021 16.0948 111.333 15.5839C110.656 15.073 109.791 14.8175 108.738 14.8175C107.621 14.8175 106.702 15.0889 105.982 15.6318C105.262 16.1746 104.725 16.9037 104.371 17.819C104.027 18.7344 103.855 19.7562 103.855 20.8844C103.855 22.0232 104.027 23.0557 104.371 23.9817C104.725 24.897 105.252 25.6261 105.95 26.1689C106.659 26.7118 107.551 26.9832 108.625 26.9832ZM113.348 29.5217V17.1166H112.961V4.21802H116.345V29.5217H113.348Z" fill="#E70000"/>
<path d="M125.77 30.0006C124.481 30.0006 123.401 29.7665 122.531 29.2981C121.66 28.8192 121 28.1912 120.548 27.4142C120.108 26.6266 119.888 25.7645 119.888 24.8278C119.888 23.9551 120.043 23.1887 120.355 22.5288C120.666 21.8689 121.128 21.3101 121.741 20.8525C122.353 20.3841 123.105 20.0063 123.997 19.7189C124.771 19.4954 125.646 19.2985 126.624 19.1282C127.602 18.9579 128.628 18.7982 129.702 18.6492C130.788 18.5002 131.862 18.3512 132.926 18.2022L131.701 18.8727C131.722 17.521 131.432 16.5205 130.831 15.8712C130.24 15.2113 129.219 14.8814 127.768 14.8814C126.855 14.8814 126.017 15.0943 125.254 15.52C124.491 15.9351 123.96 16.6269 123.659 17.5955L120.516 16.6376C120.946 15.1581 121.762 13.982 122.966 13.1092C124.18 12.2365 125.792 11.8001 127.801 11.8001C129.359 11.8001 130.712 12.0662 131.862 12.5983C133.022 13.1199 133.871 13.9501 134.408 15.0889C134.688 15.6531 134.86 16.2491 134.924 16.8771C134.989 17.505 135.021 18.1809 135.021 18.9047V29.5217H132.039V25.5782L132.62 26.0891C131.9 27.4089 130.981 28.3934 129.864 29.0427C128.757 29.6813 127.392 30.0006 125.77 30.0006ZM126.366 27.2705C127.323 27.2705 128.145 27.1056 128.832 26.7756C129.52 26.435 130.073 26.004 130.492 25.4824C130.911 24.9609 131.185 24.4181 131.314 23.8539C131.497 23.3431 131.599 22.7683 131.62 22.1297C131.653 21.4911 131.669 20.9802 131.669 20.597L132.765 20.9961C131.701 21.1558 130.734 21.2995 129.864 21.4272C128.993 21.5549 128.204 21.6827 127.494 21.8104C126.796 21.9275 126.173 22.0711 125.625 22.2414C125.163 22.4011 124.749 22.5927 124.384 22.8162C124.029 23.0397 123.745 23.3111 123.53 23.6304C123.326 23.9497 123.224 24.3382 123.224 24.7959C123.224 25.2429 123.336 25.658 123.562 26.0412C123.788 26.4137 124.132 26.7118 124.594 26.9353C125.056 27.1588 125.646 27.2705 126.366 27.2705Z" fill="#E70000"/>
<path d="M138 29.5V26.0469H141.455V29.5H138Z" fill="#E70000"/>
<path d="M152.839 29.9531C150.786 29.9531 149.113 29.5 147.821 28.5937C146.529 27.6875 145.737 26.4115 145.445 24.7656L148.79 24.25C148.999 25.125 149.478 25.8177 150.228 26.3281C150.989 26.8281 151.932 27.0781 153.058 27.0781C154.079 27.0781 154.876 26.8698 155.449 26.4531C156.033 26.0365 156.325 25.4635 156.325 24.7344C156.325 24.3073 156.221 23.9635 156.012 23.7031C155.814 23.4323 155.392 23.1771 154.746 22.9375C154.1 22.6979 153.115 22.401 151.792 22.0469C150.343 21.6719 149.191 21.2708 148.337 20.8438C147.493 20.4063 146.888 19.901 146.524 19.3281C146.169 18.7448 145.992 18.0417 145.992 17.2188C145.992 16.1979 146.263 15.3073 146.805 14.5469C147.347 13.7865 148.108 13.1979 149.087 12.7812C150.077 12.3646 151.234 12.1563 152.558 12.1563C153.85 12.1563 155.001 12.3594 156.012 12.7656C157.023 13.1719 157.841 13.75 158.466 14.5C159.092 15.2396 159.467 16.1094 159.592 17.1094L156.247 17.7188C156.132 16.9063 155.752 16.2656 155.106 15.7969C154.459 15.3281 153.62 15.0729 152.589 15.0312C151.599 14.9896 150.796 15.1562 150.181 15.5312C149.567 15.8958 149.259 16.401 149.259 17.0469C149.259 17.4219 149.374 17.7396 149.603 18C149.843 18.2604 150.301 18.5104 150.979 18.75C151.656 18.9896 152.657 19.276 153.98 19.6094C155.397 19.974 156.523 20.3802 157.357 20.8281C158.19 21.2656 158.784 21.7917 159.139 22.4063C159.503 23.0104 159.686 23.7448 159.686 24.6094C159.686 26.276 159.076 27.5833 157.857 28.5312C156.648 29.4792 154.975 29.9531 152.839 29.9531Z" fill="#E70000"/>
<path d="M174.994 29.5V21.2031C174.994 20.5469 174.936 19.875 174.822 19.1875C174.717 18.4896 174.509 17.8437 174.196 17.25C173.894 16.6562 173.462 16.1771 172.899 15.8125C172.346 15.4479 171.622 15.2656 170.726 15.2656C170.142 15.2656 169.59 15.3646 169.069 15.5625C168.548 15.75 168.089 16.0573 167.693 16.4844C167.308 16.9115 167 17.474 166.771 18.1719C166.552 18.8698 166.443 19.7187 166.443 20.7187L164.411 19.9531C164.411 18.4219 164.697 17.0729 165.27 15.9062C165.844 14.7292 166.667 13.8125 167.74 13.1563C168.814 12.5 170.111 12.1719 171.633 12.1719C172.8 12.1719 173.779 12.3594 174.571 12.7344C175.363 13.1094 176.004 13.6042 176.494 14.2187C176.994 14.8229 177.375 15.4844 177.635 16.2031C177.896 16.9219 178.073 17.625 178.167 18.3125C178.261 19 178.307 19.6042 178.307 20.125V29.5H174.994ZM163.129 29.5V7H166.052V19.1406H166.443V29.5H163.129Z" fill="#E70000"/>
<path d="M189.711 29.9687C188.022 29.9687 186.558 29.5885 185.318 28.8281C184.078 28.0677 183.119 27.0208 182.442 25.6875C181.775 24.3438 181.441 22.7969 181.441 21.0469C181.441 19.2865 181.785 17.7396 182.473 16.4062C183.161 15.0625 184.125 14.0208 185.365 13.2812C186.605 12.5312 188.054 12.1563 189.711 12.1563C191.399 12.1563 192.863 12.5365 194.103 13.2969C195.343 14.0573 196.302 15.1042 196.979 16.4375C197.657 17.7708 197.995 19.3073 197.995 21.0469C197.995 22.8073 197.652 24.3594 196.964 25.7031C196.286 27.0365 195.328 28.0833 194.087 28.8437C192.847 29.5937 191.388 29.9687 189.711 29.9687ZM189.711 26.8906C191.326 26.8906 192.529 26.349 193.321 25.2656C194.124 24.1719 194.525 22.7656 194.525 21.0469C194.525 19.2865 194.119 17.8802 193.306 16.8281C192.503 15.7656 191.305 15.2344 189.711 15.2344C188.616 15.2344 187.715 15.4844 187.006 15.9844C186.298 16.474 185.771 17.1563 185.427 18.0313C185.083 18.8958 184.911 19.901 184.911 21.0469C184.911 22.8177 185.318 24.2344 186.131 25.2969C186.944 26.3594 188.137 26.8906 189.711 26.8906Z" fill="#E70000"/>
<path d="M209.356 29.9687C207.741 29.9687 206.386 29.5781 205.292 28.7969C204.197 28.0052 203.369 26.9375 202.806 25.5937C202.243 24.25 201.962 22.7344 201.962 21.0469C201.962 19.3594 202.238 17.8438 202.791 16.5C203.353 15.1563 204.177 14.099 205.26 13.3281C206.355 12.5469 207.699 12.1563 209.293 12.1563C210.877 12.1563 212.243 12.5469 213.389 13.3281C214.546 14.099 215.437 15.1563 216.062 16.5C216.687 17.8333 217 19.349 217 21.0469C217 22.7344 216.687 24.2552 216.062 25.6094C215.447 26.9531 214.567 28.0156 213.42 28.7969C212.284 29.5781 210.93 29.9687 209.356 29.9687ZM201.415 37V12.625H204.322V24.7656H204.698V37H201.415ZM208.903 27.0156C209.945 27.0156 210.805 26.75 211.482 26.2187C212.17 25.6875 212.68 24.974 213.014 24.0781C213.358 23.1719 213.53 22.1615 213.53 21.0469C213.53 19.9427 213.358 18.9427 213.014 18.0469C212.68 17.151 212.165 16.4375 211.466 15.9062C210.768 15.375 209.877 15.1094 208.793 15.1094C207.772 15.1094 206.928 15.3594 206.261 15.8594C205.604 16.3594 205.114 17.0573 204.791 17.9531C204.479 18.849 204.322 19.8802 204.322 21.0469C204.322 22.2135 204.479 23.2448 204.791 24.1406C205.104 25.0365 205.599 25.7396 206.276 26.25C206.954 26.7604 207.829 27.0156 208.903 27.0156Z" fill="#E70000"/>
<path d="M93.0352 6.21167V9.45264H96.4035V6.21167H93.0352Z" fill="#E70000"/>
</svg>
