<svg width="31" height="31" fill="none" xmlns="http://www.w3.org/2000/svg"><g clip-path="url(#clip0_117_75)"><path d="M16.4 16.86c-3.6 0-6.525-2.97-6.525-6.628 0-3.657 2.925-6.628 6.525-6.628 3.6 0 6.525 2.97 6.525 6.628 0 3.657-2.925 6.629-6.525 6.629zm0-11.656c-2.7 0-4.838 2.17-4.838 4.914 0 2.743 2.138 4.914 4.838 4.914s4.837-2.171 4.837-4.914S19.1 5.204 16.4 5.204zm11.025 21.485l-1.575-2.971a7.234 7.234 0 00-2.621-2.829 7.082 7.082 0 00-3.68-1.057h-7.537c-2.925 0-5.512 1.714-6.637 4.457l-1.013 2.286-1.575-.686L3.8 23.604c1.35-3.315 4.612-5.486 8.1-5.486h7.537c3.263 0 6.3 1.828 7.875 4.8l1.575 2.971-1.462.8z" fill="#000"/></g><defs><clipPath id="clip0_117_75"><path fill="#fff" transform="translate(2 3.375)" d="M0 0h27v24H0z"/></clipPath></defs></svg>