<svg width="26" height="25" fill="none" xmlns="http://www.w3.org/2000/svg"><path d="M0 20.036h5.273V25l4.963-4.964H25.31V0H0v20.036zM1.055 1.055h23.2v17.927H9.8l-3.473 3.472v-3.472H1.055V1.055z" fill="#000"/><path d="M8.436 10.018A2.111 2.111 0 006.327 7.91a2.111 2.111 0 00-2.109 2.11c0 1.162.946 2.108 2.11 2.108a2.111 2.111 0 002.108-2.109zm-3.163 0a1.056 1.056 0 012.109 0 1.056 1.056 0 01-2.11 0zm7.382 2.109a2.111 2.111 0 002.109-2.109 2.111 2.111 0 00-2.11-2.109 2.111 2.111 0 00-2.109 2.11c0 1.162.946 2.108 2.11 2.108zm0-3.163a1.056 1.056 0 010 2.109 1.056 1.056 0 010-2.11zm6.327 3.163a2.111 2.111 0 002.109-2.109 2.111 2.111 0 00-2.11-2.109 2.111 2.111 0 00-2.108 2.11c0 1.162.946 2.108 2.109 2.108zm0-3.163a1.056 1.056 0 010 2.109 1.056 1.056 0 010-2.11z" fill="#000"/></svg>