<svg width="26" height="30" fill="none" xmlns="http://www.w3.org/2000/svg"><path d="M24 27.519v-17.04a2.483 2.483 0 00-2.48-2.48H4.48A2.483 2.483 0 002 10.479v17.04a2.483 2.483 0 002.48 2.48h17.04a2.483 2.483 0 002.48-2.48zm-2.48 1.48H15.5v-14H23v12.52a1.482 1.482 0 01-1.48 1.48zm-7.02-14v14h-3v-14h3zm-3-1v-5h3v5h-3zm11.5-3.52v3.52h-7.5v-5h6.02a1.482 1.482 0 011.48 1.48zM4.48 8.999h6.02v5H3v-3.52a1.482 1.482 0 011.48-1.48zM3 27.519v-12.52h7.5v14H4.48A1.482 1.482 0 013 27.519z" fill="#E70000"/><path d="M4.5 6.999h17a3.504 3.504 0 013.5 3.5h1a4.506 4.506 0 00-4.5-4.5h-3.055A3.496 3.496 0 1013 1.705 3.496 3.496 0 107.555 6H4.5A4.506 4.506 0 000 10.5h1A3.504 3.504 0 014.5 7zm11.5-6a2.5 2.5 0 010 5h-2.5v-2.5a2.503 2.503 0 012.5-2.5zm-8.5 2.5a2.5 2.5 0 115 0v2.5H10a2.503 2.503 0 01-2.5-2.5z" fill="#E70000"/></svg>