<svg width="70" height="71" fill="none" xmlns="http://www.w3.org/2000/svg"><path fill="#F0F0F0" d="M0 .5h70v70H0z"/><g clip-path="url(#clip0_328_734)" stroke="#000" stroke-width="2" stroke-linecap="round" stroke-linejoin="round"><path d="M52.392 23.313H17.609a.808.808 0 00-.804.812v22.75c0 .449.36.813.804.813h34.783a.808.808 0 00.804-.813v-22.75a.808.808 0 00-.804-.813z"/><path d="M53.196 24.125L35.503 38.571a.8.8 0 01-1.037 0L16.805 24.125m35.786 23.563L39.281 35.5M17.61 47.688l12.867-11.782"/></g><defs><clipPath id="clip0_328_734"><path fill="#fff" transform="translate(16 22.5)" d="M0 0h38v26H0z"/></clipPath></defs></svg>