<svg width="70" height="71" fill="none" xmlns="http://www.w3.org/2000/svg"><path fill="#F0F0F0" d="M0 .5h70v70H0z"/><path d="M34.5 19.75a1.25 1.25 0 100-2.5v2.5zM21.293 49.31a1.25 1.25 0 101.76-1.775l-1.76 1.774zm9.667-24.003a1.25 1.25 0 002.08 1.386l-2.08-1.386zM37 18.5l1.04.693a1.25 1.25 0 00-.347-1.733L37 18.5zm-6.807-6.04a1.25 1.25 0 00-1.386 2.08l1.386-2.08zM34.5 52.172a1.25 1.25 0 100 2.5v-2.5zm13.207-29.56a1.25 1.25 0 10-1.76 1.775l1.76-1.774zM38.04 46.694a1.25 1.25 0 00-2.08-1.386l2.08 1.386zM32 53.5l-1.04-.693a1.25 1.25 0 00.347 1.733L32 53.5zm6.807 6.04a1.25 1.25 0 001.386-2.08l-1.386 2.08zM34.5 17.25c-10.355 0-18.75 8.395-18.75 18.75h2.5c0-8.975 7.275-16.25 16.25-16.25v-2.5zM15.75 36c0 5.203 2.121 9.914 5.543 13.31l1.76-1.775A16.196 16.196 0 0118.25 36h-2.5zm17.29-9.307l5-7.5-2.08-1.386-5 7.5 2.08 1.386zm4.653-9.233l-7.5-5-1.386 2.08 7.5 5 1.386-2.08zM34.5 54.672c10.355 0 18.75-8.395 18.75-18.75h-2.5c0 8.975-7.275 16.25-16.25 16.25v2.5zm18.75-18.75c0-5.203-2.121-9.914-5.543-13.31l-1.76 1.775a16.196 16.196 0 014.803 11.535h2.5zm-17.29 9.385l-5 7.5 2.08 1.386 5-7.5-2.08-1.386zm-4.653 9.233l7.5 5 1.386-2.08-7.5-5-1.386 2.08z" fill="#000"/></svg>