<svg width="70" height="71" fill="none" xmlns="http://www.w3.org/2000/svg"><path fill="#F0F0F0" d="M0 .5h70v70H0z"/><g clip-path="url(#clip0_211_394)" fill-rule="evenodd" clip-rule="evenodd" fill="#000"><path d="M27.035 55.691c-2.05 0-4.028-1.228-5.399-3.414-1.163-1.848-5.605-18.664-5.469-21.735.106-2.498 1.3-6.976 8.34-8.682h.07c4.064-.55 6.935.307 8.098 2.392 1.229 2.22.308 5.534-2.457 8.853-.035.03-.035.03-.07.065-.172.136-3.928 3.455.1 8.683 2.67 3.52 3.384 7.247 2.02 10.253-.928 2.05-2.806 3.414-4.855 3.585h-.378zm-2.286-32.668c-5.948 1.47-7.312 4.92-7.418 7.548-.1 2.87 4.205 19.344 5.298 21.057 1.264 1.978 2.906 2.97 4.683 2.87 1.607-.106 3.107-1.234 3.863-2.87 1.193-2.6.479-5.883-1.884-9.06-4.477-5.807-.443-9.84.035-10.284 2.392-2.835 3.249-5.711 2.292-7.453-.892-1.637-3.349-2.286-6.869-1.808zm6.284-1.405c-.1 0-.171 0-.272-.03-.443-.07-.82-.343-1.128-.756-.478-.68-.65-1.707-.478-2.729.342-1.813 1.506-2.976 2.699-2.77 1.199.207 1.878 1.743 1.57 3.52-.135.786-.442 1.5-.885 2.014-.443.479-.992.75-1.506.75zm.55-5.121c-.408 0-1.029.65-1.23 1.807-.135.857.03 1.506.272 1.849.1.136.237.236.343.271.171.036.443-.1.65-.342.307-.343.513-.856.614-1.435.236-1.193-.207-2.085-.579-2.15h-.07zm-5.028 4.506c-.372 0-.75-.171-1.057-.443-.514-.479-.821-1.3-.857-2.22-.03-1.507.756-2.7 1.778-2.736 1.093 0 1.914 1.129 1.95 2.664.035 1.506-.75 2.705-1.779 2.735h-.035zm-.065-4.2c-.242.03-.65.615-.614 1.536 0 .685.271 1.164.478 1.364.065.071.136.142.236.107.243 0 .65-.585.615-1.542-.03-.886-.443-1.435-.715-1.465zm-3.862 4.957c-.992 0-1.778-1.064-1.813-2.463-.03-.857.242-1.643.685-2.085.271-.272.614-.443.992-.443.372 0 .715.135 1.022.407.478.449.756 1.2.791 2.02 0 1.435-.685 2.528-1.677 2.563zm-.1-3.798a.243.243 0 00-.172.07c-.171.172-.342.58-.342 1.229.035.786.372 1.3.579 1.3.17 0 .513-.514.478-1.335 0-.615-.236-1.022-.408-1.158 0-.07-.07-.106-.136-.106zM19.01 23.33c-.958 0-1.713-.992-1.743-2.327-.035-1.329.65-2.356 1.571-2.392h.035c.922 0 1.672.993 1.707 2.327.036 1.3-.65 2.357-1.57 2.393zm-.107-3.555c-.136.035-.443.478-.407 1.199.035.75.378 1.157.513 1.157.1 0 .443-.407.408-1.193-.036-.72-.378-1.128-.514-1.163z"/><path d="M15.66 26.508c-.308 0-.65-.136-.928-.413-.443-.408-.75-1.158-.75-1.979-.036-1.37.65-2.427 1.606-2.463h.036c.957 0 1.707 1.028 1.742 2.392.036.821-.242 1.571-.685 2.02-.272.272-.614.443-.957.443h-.065zm-.036-3.656c-.136.036-.479.479-.443 1.229 0 .55.2.957.372 1.128.035.035.106.07.136.07.07 0 .142-.07.171-.07.171-.171.343-.614.343-1.164-.036-.714-.372-1.157-.58-1.193zm3.249 9.397c-.343 0-.62-.307-.585-.615.107-2.185.272-5.847 6.255-7.312.307-.07.65.1.72.443.066.308-.106.65-.448.715-5.127 1.235-5.263 4.105-5.363 6.22 0 .307-.272.549-.58.549zm24.055 23.442h-.379c-2.05-.136-3.927-1.5-4.849-3.585-1.37-3.006-.614-6.733 2.014-10.253 4.034-5.263.243-8.576.1-8.718l-.064-.065c-2.77-3.284-3.692-6.597-2.428-8.818 1.164-2.12 4.034-2.971 8.098-2.392h.07c7.006 1.707 8.27 6.148 8.37 8.682.142 3.071-4.335 19.887-5.499 21.765-1.4 2.156-3.349 3.384-5.433 3.384zm-2.292-23.407c.478.443 4.512 4.477.035 10.283-2.392 3.148-3.077 6.462-1.878 9.025.75 1.672 2.22 2.77 3.863 2.87 1.778.101 3.414-.891 4.678-2.87.927-1.47 5.433-17.908 5.333-21.05-.136-2.634-1.536-6.083-7.448-7.554-3.52-.479-5.948.171-6.869 1.813-.957 1.772-.07 4.648 2.286 7.484zm-1.672-10.666c-1.093 0-2.12-1.158-2.428-2.764-.272-1.778.408-3.314 1.571-3.52 1.229-.207 2.357.992 2.7 2.77.307 1.742-.373 3.278-1.572 3.485-.1.029-.17.029-.271.029zm-.65-5.12c-.378.064-.785.956-.585 2.15.207 1.092.857 1.848 1.3 1.777.378-.07.785-.921.584-2.12-.17-1.128-.82-1.879-1.299-1.808zm5.09 4.506h-.035c-1.022-.03-1.813-1.229-1.778-2.735.035-1.535.892-2.663 1.95-2.663 1.027.035 1.812 1.228 1.777 2.734-.035.886-.343 1.707-.856 2.22-.308.308-.68.444-1.058.444zm.1-4.2c-.271 0-.679.58-.714 1.465-.035.928.407 1.542.614 1.542.1 0 .171-.071.236-.107.207-.2.45-.679.479-1.364 0-.921-.372-1.506-.614-1.535zm3.864 4.956c-.992-.036-1.707-1.164-1.671-2.564.03-.82.307-1.571.785-2.02.307-.272.65-.407 1.022-.407.378 0 .72.17 1.028.478.443.478.685 1.264.65 2.085-.072 1.364-.822 2.427-1.814 2.427zm.07-3.798c-.07 0-.105.035-.17.07-.172.172-.378.58-.414 1.164-.03.85.343 1.329.514 1.329.171 0 .55-.478.55-1.3.029-.614-.172-1.021-.308-1.193 0 0-.106-.07-.171-.07zm3.551 5.368c-.957-.035-1.636-1.063-1.601-2.392.03-1.334.75-2.327 1.707-2.327h.035c.922.036 1.607 1.063 1.572 2.392-.036 1.335-.786 2.328-1.713 2.328zm.07-3.555c-.135.035-.478.407-.513 1.163-.036.75.307 1.158.443 1.194.106 0 .478-.408.478-1.158.035-.72-.236-1.164-.407-1.2z"/><path d="M54.271 26.508h-.035c-.343 0-.685-.136-.957-.443-.443-.449-.685-1.199-.685-2.02.035-1.364.785-2.392 1.742-2.392h.036c.956.036 1.677 1.128 1.642 2.463-.071 1.365-.822 2.392-1.743 2.392zm.065-3.656c-.2.036-.508.479-.543 1.193 0 .55.171.993.342 1.164.036.035.065.07.136.07.171 0 .514-.413.544-1.234.035-.679-.308-1.157-.479-1.193zm-3.24 9.398c-.307 0-.585-.242-.585-.55v-.029c-.1-2.085-.236-4.955-5.328-6.19-.307-.065-.513-.407-.443-.715.066-.307.408-.513.715-.442 5.983 1.464 6.155 5.09 6.255 7.276 0 .343-.242.614-.614.65.035 0 .035 0 0 0z"/></g><defs><clipPath id="clip0_211_394"><path fill="#fff" transform="translate(14 14.5)" d="M0 0h42v42H0z"/></clipPath></defs></svg>