<svg width="36" height="51" fill="none" xmlns="http://www.w3.org/2000/svg"><g clip-path="url(#clip0_198_805)"><path fill-rule="evenodd" clip-rule="evenodd" d="M17.647.5C7.891.5 0 8.325 0 18c0 10.425 11.143 24.8 15.731 30.275a2.516 2.516 0 003.857 0C24.151 42.8 35.294 28.425 35.294 18c0-9.675-7.89-17.5-17.647-17.5zm0 23.75c-3.479 0-6.302-2.8-6.302-6.25s2.823-6.25 6.302-6.25c3.479 0 6.303 2.8 6.303 6.25s-2.824 6.25-6.303 6.25z" fill="#FF1A25"/></g><defs><clipPath id="clip0_198_805"><path fill="#fff" transform="translate(0 .5)" d="M0 0h35.294v50H0z"/></clipPath></defs></svg>