<svg width="217" height="37" fill="none" xmlns="http://www.w3.org/2000/svg"><path d="M11.251 29.22L0 11.747l16.42 4.518 8.21-7.53 2.434 20.785-15.813-.302zm16.725.3L25.543 3.315 29.496 0l3.953 3.314-1.216 26.207h-4.257zm5.169 0l1.52-20.784 7.602 7.53-2.433 13.255h-6.69zm7.905.001l2.434-13.254 16.724-5.121-12.163 18.375H41.05zm44.094.001l.016-10.745c0-1.245-.322-2.214-.967-2.906-.644-.702-1.493-1.053-2.546-1.053-.645 0-1.236.149-1.773.447-.526.287-.956.723-1.29 1.309-.322.574-.483 1.298-.483 2.171l-1.627-.814c-.022-1.214.236-2.278.773-3.193a5.662 5.662 0 012.224-2.124c.935-.51 1.983-.766 3.143-.766 1.88 0 3.336.559 4.367 1.676 1.032 1.118 1.548 2.603 1.548 4.455l-.016 11.543h-3.369zm-20.87 0V12.279h2.997v4.981h.387v12.262h-3.385zm10.443 0l.016-10.681c0-1.256-.322-2.24-.967-2.954-.634-.713-1.488-1.07-2.563-1.07-1.063 0-1.923.362-2.578 1.086-.645.724-.967 1.671-.967 2.842l-1.612-1.022c0-1.128.274-2.134.822-3.017a5.893 5.893 0 012.224-2.092c.935-.51 1.993-.766 3.175-.766 1.236 0 2.289.26 3.159.782a4.96 4.96 0 011.982 2.156c.462.926.693 2 .693 3.225l-.016 11.51h-3.368zm18.319 0V12.279h3.368v17.243h-3.368zm15.122.478c-1.622 0-3.024-.398-4.206-1.197-1.172-.798-2.079-1.884-2.724-3.257-.634-1.383-.951-2.937-.951-4.662 0-1.735.322-3.283.967-4.646.645-1.373 1.558-2.453 2.74-3.24 1.192-.799 2.605-1.198 4.238-1.198 1.644 0 3.025.4 4.142 1.197 1.129.788 1.977 1.868 2.547 3.241.58 1.373.87 2.922.87 4.646 0 1.725-.29 3.273-.87 4.646-.58 1.373-1.435 2.464-2.563 3.273-1.128.799-2.525 1.198-4.19 1.198zm.467-3.017c1.107 0 2.01-.26 2.708-.782.698-.522 1.209-1.24 1.531-2.155.322-.916.484-1.97.484-3.162s-.167-2.245-.5-3.16c-.322-.916-.827-1.63-1.515-2.14-.677-.511-1.542-.766-2.595-.766-1.117 0-2.036.27-2.756.814-.72.543-1.257 1.272-1.611 2.187-.344.915-.516 1.937-.516 3.065 0 1.14.172 2.172.516 3.098.354.915.881 1.644 1.579 2.187.709.543 1.601.814 2.675.814zm4.723 2.539V17.117h-.387V4.218h3.384v25.304h-2.997zM125.77 30c-1.289 0-2.369-.233-3.239-.702-.871-.479-1.531-1.107-1.983-1.884a5.214 5.214 0 01-.66-2.586c0-.873.155-1.64.467-2.3a4.428 4.428 0 011.386-1.675c.612-.469 1.364-.847 2.256-1.134.774-.224 1.649-.42 2.627-.59a90.29 90.29 0 013.078-.48c1.086-.149 2.16-.298 3.224-.447l-1.225.67c.021-1.351-.269-2.352-.87-3-.591-.66-1.612-.99-3.063-.99-.913 0-1.751.212-2.514.638-.763.415-1.294 1.107-1.595 2.076l-3.143-.958c.43-1.48 1.246-2.656 2.45-3.529 1.214-.873 2.826-1.309 4.835-1.309 1.558 0 2.911.266 4.061.798 1.16.522 2.009 1.352 2.546 2.49.28.565.452 1.161.516 1.79.065.627.097 1.303.097 2.027v10.617h-2.982v-3.944l.581.511c-.72 1.32-1.639 2.304-2.756 2.954-1.107.638-2.472.958-4.094.958zm.596-2.73c.957 0 1.779-.164 2.466-.494.688-.341 1.241-.772 1.66-1.294.419-.521.693-1.064.822-1.628.183-.51.285-1.086.306-1.724.033-.639.049-1.15.049-1.533l1.096.4c-1.064.159-2.031.302-2.901.43a77.6 77.6 0 00-2.37.383c-.698.117-1.321.261-1.869.431-.462.16-.876.352-1.241.575a2.826 2.826 0 00-.854.814c-.204.32-.306.708-.306 1.166 0 .447.112.862.338 1.245.226.373.57.67 1.032.894.462.224 1.052.335 1.772.335zM138 29.5v-3.453h3.455V29.5H138zm14.839.453c-2.053 0-3.726-.453-5.018-1.36-1.292-.905-2.084-2.181-2.376-3.827l3.345-.516a3.386 3.386 0 001.438 2.078c.761.5 1.704.75 2.83.75 1.021 0 1.818-.208 2.391-.625.584-.416.876-.99.876-1.719 0-.427-.104-.77-.313-1.03-.198-.272-.62-.527-1.266-.767s-1.631-.536-2.954-.89c-1.449-.375-2.601-.776-3.455-1.203-.844-.438-1.449-.943-1.813-1.516-.355-.583-.532-1.286-.532-2.11 0-1.02.271-1.91.813-2.671.542-.76 1.303-1.35 2.282-1.766.99-.416 2.147-.625 3.471-.625 1.292 0 2.443.203 3.454.61 1.011.406 1.829.984 2.454 1.734.626.74 1.001 1.61 1.126 2.61l-3.345.609c-.115-.813-.495-1.453-1.141-1.922-.647-.469-1.486-.724-2.517-.766-.99-.041-1.793.125-2.408.5-.614.365-.922.87-.922 1.516 0 .375.115.693.344.953.24.26.698.51 1.376.75.677.24 1.678.526 3.001.86 1.417.364 2.543.77 3.377 1.218.833.438 1.427.964 1.782 1.578.364.604.547 1.339.547 2.203 0 1.667-.61 2.974-1.829 3.922-1.209.948-2.882 1.422-5.018 1.422zm22.155-.453v-8.297c0-.656-.058-1.328-.172-2.015a6.052 6.052 0 00-.626-1.938 3.663 3.663 0 00-1.297-1.438c-.553-.364-1.277-.546-2.173-.546-.584 0-1.136.099-1.657.296a3.46 3.46 0 00-1.376.922c-.385.427-.693.99-.922 1.688-.219.698-.328 1.547-.328 2.547l-2.032-.766c0-1.531.286-2.88.859-4.047.574-1.177 1.397-2.094 2.47-2.75 1.074-.656 2.371-.984 3.893-.984 1.167 0 2.146.187 2.938.562.792.375 1.433.87 1.923 1.485.5.604.881 1.265 1.141 1.984.261.719.438 1.422.532 2.11.094.687.14 1.291.14 1.812V29.5h-3.313zm-11.865 0V7h2.923v12.14h.391V29.5h-3.314zm26.582.469c-1.689 0-3.153-.38-4.393-1.14-1.24-.761-2.199-1.808-2.876-3.142-.667-1.343-1.001-2.89-1.001-4.64 0-1.76.344-3.307 1.032-4.64.688-1.345 1.652-2.386 2.892-3.126 1.24-.75 2.689-1.125 4.346-1.125 1.688 0 3.152.38 4.392 1.14 1.24.761 2.199 1.808 2.876 3.142.678 1.333 1.016 2.87 1.016 4.609 0 1.76-.343 3.312-1.031 4.656-.678 1.334-1.636 2.38-2.877 3.14-1.24.75-2.699 1.126-4.376 1.126zm0-3.078c1.615 0 2.818-.542 3.61-1.625.803-1.094 1.204-2.5 1.204-4.22 0-1.76-.406-3.166-1.219-4.218-.803-1.062-2.001-1.594-3.595-1.594-1.095 0-1.996.25-2.705.75-.708.49-1.235 1.172-1.579 2.047-.344.865-.516 1.87-.516 3.016 0 1.77.407 3.187 1.22 4.25.813 1.062 2.006 1.594 3.58 1.594zm19.645 3.078c-1.615 0-2.97-.39-4.064-1.172-1.095-.792-1.923-1.86-2.486-3.203-.563-1.344-.844-2.86-.844-4.547 0-1.688.276-3.203.829-4.547.562-1.344 1.386-2.401 2.469-3.172 1.095-.781 2.439-1.172 4.033-1.172 1.584 0 2.95.39 4.096 1.172 1.157.771 2.048 1.828 2.673 3.172.625 1.333.938 2.849.938 4.547 0 1.687-.313 3.208-.938 4.562-.615 1.344-1.495 2.407-2.642 3.188-1.136.781-2.49 1.172-4.064 1.172zM201.415 37V12.625h2.907v12.14h.376V37h-3.283zm7.488-9.984c1.042 0 1.902-.266 2.579-.797.688-.532 1.198-1.245 1.532-2.14.344-.907.516-1.918.516-3.032 0-1.104-.172-2.104-.516-3-.334-.896-.849-1.61-1.548-2.14-.698-.532-1.589-.798-2.673-.798-1.021 0-1.865.25-2.532.75-.657.5-1.147 1.198-1.47 2.094-.312.896-.469 1.927-.469 3.094 0 1.166.157 2.198.469 3.094.313.896.808 1.599 1.485 2.109.678.51 1.553.766 2.627.766zM93.035 6.212v3.24h3.368v-3.24h-3.368z" fill="#E70000"/></svg>