<svg width="525" height="84" fill="none" xmlns="http://www.w3.org/2000/svg"><path d="M118.2 3.134C107.533 6.467 97.8 15 93.533 24.6 89 35 89.266 49.4 94.2 59.534c7.6 15.466 20.266 22 45.2 23.066l15.6.8V64.734l-12.667-.8c-19.067-1.067-27.6-6.4-30.667-18.667C109.4 36.2 115 26.067 125 21.534 129.666 19.4 134.2 19 161.4 19h30.933V.334L159.4.467c-28.934 0-34.134.4-41.2 2.667zm105.333 0C206.067 8.6 195.8 23 195.8 41.8c0 12.534 4.4 22.667 12.8 29.867 9.867 8.4 17.733 10.533 39.067 10.533 16.133 0 19.733-.4 26.133-2.933 20.667-8.133 30.8-28.8 24.667-50.267-1.867-6.133-3.867-9.333-10-15.466-6.4-6.267-9.2-8.134-16.667-10.4-12.4-3.867-36.4-3.867-48.267 0zM267.4 22.2c6.667 3.334 10.533 9.067 11.333 16.933 1.2 12.4-5.866 21.067-19.333 23.867-9.733 2.133-24.267.8-31.067-2.666-16.666-8.534-15.6-30.8 2-38.934 7.334-3.333 29.467-2.933 37.067.8zM.333 41.667v40H83V63H21.667V51H83V32.334H21.667v-12H83V1.667H.333v40zm305.334 0v40H327v-80h-21.333v40zm47.466-38.533c-12.4 2.933-18.666 10.533-18.8 22.533 0 9.733 3.467 15.6 11.867 19.867 6 3.066 8.267 3.333 31.067 4 22.4.666 24.8 1.066 26.533 3.333 2.267 3.2 2.267 3.733 0 6.933-1.733 2.4-4 2.534-34 2.934l-32.133.4v18.533H367.4c32.667 0 41.867-1.333 49.867-7.467 6-4.533 8.4-9.733 8.4-18 0-9.6-3.867-16-12.534-20.666-6.533-3.6-7.733-3.734-30.8-4.534-13.2-.4-24.8-1.2-25.6-1.733-2.533-1.6-2-6 .8-7.6 1.6-.8 14.534-1.333 32.667-1.333h30.133V1.667L389.4 1.8c-17.067.134-33.467.667-36.267 1.334zM427 11v9.334h37.333v61.333h21.334V20.334h38.666V1.667H427V11z" fill="#000"/><path d="M146.467 53.934C152.2 60.067 161 68.734 165.8 73.267l8.8 8.4h27.067l-19.734-19.333-19.6-19.2-13.2-.134h-13.2l10.534 10.934z" fill="#000"/></svg>