<svg width="20" height="16" fill="none" xmlns="http://www.w3.org/2000/svg"><path d="M1 1V.375A.625.625 0 00.375 1H1zm18.286 0h.625a.625.625 0 00-.625-.625V1zm0 14.222v.625c.345 0 .625-.28.625-.625h-.625zM1 15.222H.375c0 .345.28.625.625.625v-.625zm.304-12.737a.625.625 0 10-.608 1.093l.608-1.093zm8.839 5.626l-.304.546a.625.625 0 00.607 0l-.303-.546zm9.446-4.533a.625.625 0 10-.607-1.093l.607 1.093zM1 1.625h18.286V.375H1v1.25zM18.66 1v14.222h1.25V1h-1.25zm.626 13.597H1v1.25h18.286v-1.25zm-17.661.625V1H.375v14.222h1.25zM.696 3.578l9.143 5.08.607-1.093-9.142-5.08-.608 1.093zm9.75 5.08l9.143-5.08-.607-1.093-9.143 5.08.607 1.092z" fill="#E70000"/></svg>