<svg width="45" height="30" fill="none" xmlns="http://www.w3.org/2000/svg"><rect x=".634" width="43.902" height="30" rx="2" fill="#fff"/><path d="M18.848 8.028h7.474v13.766h-7.474V8.028z" fill="#7A7A7A"/><path d="M19.322 14.911a8.86 8.86 0 013.25-6.883 8.36 8.36 0 00-5.267-1.872c-4.721 0-8.541 3.915-8.541 8.755 0 4.84 3.82 8.755 8.541 8.755a8.36 8.36 0 005.268-1.872c-1.97-1.581-3.25-4.086-3.25-6.883z" fill="#000"/><path d="M36.406 14.911c0 4.84-3.82 8.755-8.542 8.755a8.36 8.36 0 01-5.267-1.872c1.993-1.605 3.25-4.086 3.25-6.883a8.86 8.86 0 00-3.25-6.883 8.36 8.36 0 015.267-1.872c4.722 0 8.542 3.94 8.542 8.755z" fill="#ADADAD"/><rect x="1.134" y=".5" width="42.902" height="29" rx="1.5" stroke="#000" stroke-opacity=".2"/></svg>