<svg width="40" height="50" fill="none" xmlns="http://www.w3.org/2000/svg"><path d="M38.704 26.28a4.42 4.42 0 00-2.271-1.209 4.418 4.418 0 00-3.133-6.247 4.418 4.418 0 00-2.85-6.18l5.121-5.105a4.412 4.412 0 000-6.247 4.445 4.445 0 00-6.266 0L10.99 19.551 8.838 13.11a6.652 6.652 0 00-1.605-2.588 4.247 4.247 0 00-5.994.01A4.183 4.183 0 000 13.515v20.196a16.955 16.955 0 005.024 12.09c5.614 5.597 14.75 5.597 20.365 0l13.315-13.275a4.412 4.412 0 000-6.247zM23.822 44.24c-4.751 4.737-12.482 4.735-17.233-.001a14.748 14.748 0 01-4.37-10.527l-.002-20.198a1.996 1.996 0 01.598-1.43 2.022 2.022 0 012.851 0 4.44 4.44 0 011.07 1.726l2.721 8.135a1.108 1.108 0 001.833.43l19.58-19.52a2.222 2.222 0 013.133 0 2.206 2.206 0 010 3.123l-14.88 14.836a1.102 1.102 0 000 1.562 1.11 1.11 0 001.566 0l7.05-7.028a2.222 2.222 0 013.132 0 2.206 2.206 0 010 3.123L23.822 25.5a1.103 1.103 0 000 1.562 1.11 1.11 0 001.567 0l5.482-5.466a2.222 2.222 0 013.133 0 2.206 2.206 0 010 3.123l-5.482 5.466a1.102 1.102 0 000 1.562 1.11 1.11 0 001.566 0l3.916-3.904a2.222 2.222 0 013.134 0 2.206 2.206 0 010 3.123L23.822 44.24z" fill="#000"/></svg>