<svg width="25" height="27" fill="none" xmlns="http://www.w3.org/2000/svg"><path d="M24.76 6.536L12.721.054a.463.463 0 00-.435 0L.25 6.536a.463.463 0 00-.25.407v12.963a.463.463 0 00.245.408l12.037 6.481a.464.464 0 00.436 0l12.037-6.481a.463.463 0 00.245-.408V6.943a.463.463 0 00-.24-.407zM12.5.99l11.065 5.953-3.24 1.746L9.643 2.527 12.5.99zM1.435 6.943l3.486-1.852 10.676 6.14-3.097 1.666L1.435 6.943zm7.25-3.903l10.68 6.162-2.81 1.514L5.88 4.55l2.805-1.51zm8.486 8.394l2.519-1.352v3.454l-.972-.963a.464.464 0 00-.755.153l-.792 1.907v-3.2zM.926 7.716l11.111 5.987v11.912L.926 19.627V7.716zm12.037 17.899V13.702l3.282-1.77v5.029a.462.462 0 00.885.166l1.416-3.42 1.269 1.258a.463.463 0 00.791-.328V9.582L24.07 7.73v11.898l-11.106 5.986z" fill="#000"/></svg>