<svg width="25" height="25" fill="none" xmlns="http://www.w3.org/2000/svg"><path d="M21.875 7.281h-1.172V3.266a1.952 1.952 0 00-2.633-1.828L3.164 7.28h-.039a1.953 1.953 0 00-1.953 1.953v12.5a1.953 1.953 0 001.953 1.953h18.75a1.953 1.953 0 001.953-1.953v-12.5a1.953 1.953 0 00-1.953-1.953zm-3.516-5.113a1.172 1.172 0 011.563 1.098V7.28H5.305l13.054-5.113zm3.516 20.738H3.125a1.172 1.172 0 01-1.172-1.172v-12.5a1.172 1.172 0 011.172-1.171h18.75a1.172 1.172 0 011.172 1.171v3.977h-5.973a.39.39 0 00-.39.39v3.766a.39.39 0 00.39.39h5.973v3.977a1.172 1.172 0 01-1.172 1.172zm1.172-5.93h-5.582v-2.984h5.582v2.985z" fill="#000"/></svg>