<svg width="27" height="25" fill="none" xmlns="http://www.w3.org/2000/svg"><path d="M5.944 7.012h13.112a.35.35 0 01.356.356v12.663a.35.35 0 01-.356.356H5.944a.35.35 0 01-.356-.356V7.368a.35.35 0 01.356-.356zm12.756.712H6.316V19.66H18.7V7.724z" fill="#000"/><path d="M19.365 7.198c.109.17.031.387-.139.48a.355.355 0 01-.48-.14l-1.238-2.213H7.492L6.27 7.54a.377.377 0 01-.495.139.355.355 0 01-.14-.48L6.95 4.814a.361.361 0 01.326-.201h10.448a.34.34 0 01.31.186l1.331 2.4z" fill="#000"/><path d="M13.483 5.031a.346.346 0 01.279-.418.356.356 0 01.418.294l.449 2.4c.03.185-.109.371-.295.417a.356.356 0 01-.418-.294l-.433-2.399zm-1.502 2.4a.356.356 0 01-.418.293c-.185-.046-.325-.232-.294-.418l.45-2.399a.35.35 0 01.402-.294c.201.031.34.217.294.418l-.434 2.4z" fill="#000"/><path d="M13.916 7.368a.36.36 0 01.356-.356c.202 0 .372.155.372.356v2.214c0 .201-.17.372-.372.372h-2.647a.363.363 0 01-.356-.372V7.368a.35.35 0 01.356-.356c.202 0 .372.155.372.356v1.858h1.92V7.368z" fill="#000"/><path d="M11.27 9.582a.35.35 0 01.355-.356c.202 0 .372.155.372.356v.867c0 .186-.17.356-.372.356a.36.36 0 01-.356-.356v-.867zm1.33 0a.35.35 0 01.357-.356.35.35 0 01.356.356v.867a.36.36 0 01-.356.356.36.36 0 01-.356-.356v-.867zm1.316 0a.36.36 0 01.356-.356c.202 0 .372.155.372.356v.867c0 .186-.17.356-.372.356a.371.371 0 01-.356-.356v-.867zm-6.408 7.09a.377.377 0 01-.372-.372c0-.186.17-.356.372-.356h4.876c.201 0 .371.17.371.356 0 .201-.17.372-.371.372H7.508zm0 1.223a.377.377 0 01-.372-.372c0-.201.17-.356.372-.356h4.876c.201 0 .371.155.371.356 0 .201-.17.372-.371.372H7.508zm0 1.223a.377.377 0 01-.372-.372c0-.201.17-.356.372-.356h3.715a.35.35 0 01.356.356.363.363 0 01-.356.372H7.508zm8.715-3.034h1.61c.201 0 .371.17.371.356v2.167c0 .201-.17.371-.371.371h-1.61a.363.363 0 01-.356-.371V16.44a.36.36 0 01.356-.356zm1.254.727h-.883v1.44h.883v-1.44z" fill="#000"/><path d="M24.257 13.375a.35.35 0 01.371-.34.364.364 0 01.341.386c-.232 3.25-1.718 6.146-3.963 8.235A12.436 12.436 0 0112.508 25a12.408 12.408 0 01-8.84-3.669A12.408 12.408 0 010 12.492C0 9.04 1.393 5.913 3.669 3.653A12.459 12.459 0 0112.508 0c2.554 0 4.938.774 6.92 2.09a12.564 12.564 0 014.628 5.619c.077.17-.016.387-.201.464a.353.353 0 01-.465-.2 11.925 11.925 0 00-4.365-5.28 11.61 11.61 0 00-6.517-1.98 11.744 11.744 0 00-8.328 3.45 11.734 11.734 0 00-3.452 8.328c0 3.251 1.315 6.208 3.452 8.328a11.68 11.68 0 008.328 3.452 11.69 11.69 0 008.003-3.142 11.79 11.79 0 003.746-7.755z" fill="#000"/><path d="M23.204 15.155c-.155.124-.387.108-.51-.031a.364.364 0 01.015-.511l1.656-1.486a.352.352 0 01.511.03c.016 0 .016.016.016.016l1.44 1.688c.123.139.108.371-.047.51a.348.348 0 01-.495-.046l-1.208-1.409-1.378 1.239z" fill="#000"/></svg>