<svg width="32" height="33" fill="none" xmlns="http://www.w3.org/2000/svg"><path d="M27 29.02V11.98a2.483 2.483 0 00-2.48-2.48H7.48A2.483 2.483 0 005 11.98v17.04a2.483 2.483 0 002.48 2.48h17.04A2.483 2.483 0 0027 29.02zm-2.48 1.48H18.5v-14H26v12.52a1.481 1.481 0 01-1.48 1.48zm-7.02-14v14h-3v-14h3zm-3-1v-5h3v5h-3zM26 11.98v3.52h-7.5v-5h6.02A1.481 1.481 0 0126 11.98zM7.48 10.5h6.02v5H6v-3.52a1.482 1.482 0 011.48-1.48zM6 29.02V16.5h7.5v14H7.48A1.482 1.482 0 016 29.02z" fill="#E70000"/><path d="M7.5 8.5h17A3.504 3.504 0 0128 12h1a4.506 4.506 0 00-4.5-4.5h-3.055A3.496 3.496 0 1016 3.206 3.495 3.495 0 1010.555 7.5H7.5A4.505 4.505 0 003 12h1a3.504 3.504 0 013.5-3.5zm11.5-6a2.5 2.5 0 010 5h-2.5V5A2.503 2.503 0 0119 2.5zM10.5 5a2.5 2.5 0 015 0v2.5H13A2.503 2.503 0 0110.5 5z" fill="#E70000"/></svg>