<svg width="60" height="60" fill="none" xmlns="http://www.w3.org/2000/svg"><rect x="1" y="1" width="58" height="58" rx="11" fill="#fff" stroke="#D9D9D9" stroke-width="2"/><path d="M29.889 20.361a1.25 1.25 0 000-2.5v2.5zm-8.55 18.256a1.25 1.25 0 101.76-1.775l-1.76 1.775zm5.954-15.533a1.25 1.25 0 102.08 1.387l-2.08-1.387zm4.151-3.973l1.04.694a1.25 1.25 0 00-.346-1.734l-.694 1.04zm-3.973-4.151a1.25 1.25 0 00-1.387 2.08l1.387-2.08zm2.418 24.63a1.25 1.25 0 000 2.5v-2.5zm8.55-18.255a1.25 1.25 0 10-1.76 1.774l1.76-1.774zm-5.955 15.58a1.25 1.25 0 00-2.08-1.386l2.08 1.387zm-4.15 3.974l-1.04-.694a1.25 1.25 0 00.346 1.734l.693-1.04zm3.973 4.151a1.25 1.25 0 001.386-2.08l-1.386 2.08zm-2.418-27.179c-6.704 0-12.139 5.435-12.139 12.139h2.5a9.639 9.639 0 019.639-9.639v-2.5zM17.75 30c0 3.369 1.374 6.419 3.589 8.617l1.76-1.775A9.605 9.605 0 0120.25 30h-2.5zm11.623-5.529l3.111-4.666-2.08-1.387-3.11 4.666 2.08 1.387zm2.765-6.4L27.47 14.96l-1.387 2.08 4.667 3.111 1.387-2.08zm-2.25 24.02c6.705 0 12.14-5.435 12.14-12.14h-2.5a9.639 9.639 0 01-9.64 9.64v2.5zm12.14-12.14c0-3.368-1.374-6.418-3.589-8.616l-1.76 1.774a9.605 9.605 0 012.849 6.842h2.5zM30.404 35.53l-3.11 4.666 2.08 1.387 3.11-4.666-2.08-1.387zm-2.764 6.4l4.667 3.111 1.386-2.08-4.666-3.111-1.387 2.08z" fill="#000"/></svg>