<svg width="60" height="60" fill="none" xmlns="http://www.w3.org/2000/svg"><rect x="1" y="1" width="58" height="58" rx="11" fill="#fff" stroke="#D9D9D9" stroke-width="2"/><path d="M40.5 25.286l.926-.84a1.25 1.25 0 00-.926-.41v1.25zm5.5 6.06h1.25c0-.31-.116-.61-.324-.839l-.926.84zm0 6.511v1.25c.69 0 1.25-.56 1.25-1.25H46zm-3.277 0l-1.178.417 1.178-.416zm-4.446 0l1.178.417-1.178-.416zM35 25.287v-1.25c-.69 0-1.25.56-1.25 1.25H35zM13 17.75a1.25 1.25 0 100 2.5v-2.5zM35 19h1.25c0-.69-.56-1.25-1.25-1.25V19zM17.715 36.607a1.25 1.25 0 00-.001 2.5v-2.5zm.785-6.928a1.25 1.25 0 000-2.5v2.5zm-2.357-2.5a1.25 1.25 0 100 2.5v-2.5zm2.357 7.214a1.25 1.25 0 000-2.5v2.5zm-.786-2.5a1.25 1.25 0 100 2.5v-2.5zm.786-6.929a1.25 1.25 0 000-2.5v2.5zm-3.929-2.5a1.25 1.25 0 000 2.5v-2.5zm25.003 3.662l5.5 6.06 1.852-1.679-5.5-6.061-1.852 1.68zm5.176 5.22v6.511h2.5v-6.51h-2.5zM46 36.608h-3.277v2.5H46v-2.5zm-2.098.834a3.608 3.608 0 00-3.402-2.405v2.5c.48 0 .892.306 1.044.738l2.358-.833zM40.5 35.036a3.608 3.608 0 00-3.402 2.405l2.358.833a1.108 1.108 0 011.044-.738v-2.5zm-2.223 1.572H35v2.5h3.277v-2.5zm-2.027 1.25V25.285h-2.5v12.571h2.5zM35 26.535h5.5v-2.5H35v2.5zM13 20.25h22v-2.5H13v2.5zM33.75 19v18.857h2.5V19h-2.5zM35 36.607H23.866v2.5H35v-2.5zm-9.955.834a3.608 3.608 0 00-3.402-2.405v2.5c.48 0 .892.306 1.044.738l2.358-.833zm-3.402-2.405a3.608 3.608 0 00-3.402 2.405l2.357.833a1.108 1.108 0 011.045-.738v-2.5zm-2.223 1.572h-1.705l-.001 2.5h1.705l.001-2.5zm21.08.928c.611 0 1.107.495 1.107 1.107h2.5a3.607 3.607 0 00-3.607-3.607v2.5zm1.107 1.107c0 .611-.495 1.107-1.107 1.107v2.5a3.607 3.607 0 003.607-3.607h-2.5zM40.5 39.75a1.107 1.107 0 01-1.107-1.107h-2.5A3.607 3.607 0 0040.5 42.25v-2.5zm-1.107-1.107c0-.612.495-1.107 1.107-1.107v-2.5a3.607 3.607 0 00-3.607 3.607h2.5zm-17.75-1.107c.611 0 1.107.495 1.107 1.107h2.5a3.607 3.607 0 00-3.607-3.607v2.5zm1.107 1.107c0 .611-.496 1.107-1.107 1.107v2.5a3.607 3.607 0 003.607-3.607h-2.5zm-1.107 1.107a1.107 1.107 0 01-1.107-1.107h-2.5a3.607 3.607 0 003.607 3.607v-2.5zm-1.107-1.107c0-.612.495-1.107 1.107-1.107v-2.5a3.607 3.607 0 00-3.607 3.607h2.5zM18.5 27.179h-2.357v2.5H18.5v-2.5zm0 4.714h-.786v2.5h.786v-2.5zm0-9.429h-3.929v2.5H18.5v-2.5zm18.598 14.977a3.602 3.602 0 00-.205 1.202h2.5c0-.132.022-.255.063-.37l-2.358-.832zm7.01 1.202c0-.42-.073-.824-.206-1.202l-2.358.833c.04.114.063.237.063.369h2.5zM18.24 37.44a3.604 3.604 0 00-.205 1.202h2.5c0-.132.022-.255.062-.37l-2.357-.832zm7.009 1.202c0-.42-.072-.824-.205-1.202l-2.358.833c.04.114.063.237.063.369h2.5z" fill="#000"/></svg>