<svg width="60" height="60" fill="none" xmlns="http://www.w3.org/2000/svg"><rect x="1" y="1" width="58" height="58" rx="11" fill="#fff" stroke="#D9D9D9" stroke-width="2"/><g clip-path="url(#clip0_137_82)"><path d="M30.8 31.733c-4.2 0-7.613-3.466-7.613-7.733 0-4.267 3.412-7.733 7.612-7.733s7.613 3.466 7.613 7.733c0 4.267-3.413 7.733-7.613 7.733zm0-13.6c-3.15 0-5.645 2.534-5.645 5.734S27.65 29.6 30.8 29.6s5.644-2.533 5.644-5.733c0-3.2-2.494-5.734-5.644-5.734zM43.661 43.2l-1.838-3.467a8.44 8.44 0 00-3.057-3.3 8.265 8.265 0 00-4.293-1.233H25.68c-3.413 0-6.432 2-7.744 5.2l-1.181 2.667-1.838-.8 1.181-2.667c1.575-3.867 5.381-6.4 9.45-6.4h8.794c3.806 0 7.35 2.133 9.188 5.6l1.837 3.467-1.706.933z" fill="#000"/></g><defs><clipPath id="clip0_137_82"><path fill="#fff" transform="translate(14 16)" d="M0 0h31.5v28H0z"/></clipPath></defs></svg>