<svg width="45" height="30" fill="none" xmlns="http://www.w3.org/2000/svg"><rect width="44.634" height="30" rx="2" fill="#fff"/><path d="M27.57 9.143c-2.465 0-4.667 1.288-4.667 3.668 0 2.73 3.906 2.918 3.906 4.29 0 .576-.656 1.093-1.777 1.093-1.59 0-2.779-.722-2.779-.722l-.509 2.402s1.37.61 3.188.61c2.695 0 4.816-1.352 4.816-3.772 0-2.884-3.923-3.067-3.923-4.34 0-.452.538-.947 1.656-.947 1.26 0 2.29.525 2.29.525l.497-2.32s-1.119-.487-2.698-.487zm-22.55.175l-.06.35s1.037.192 1.971.574c1.203.437 1.288.692 1.49 1.483l2.208 8.578h2.958l4.558-10.985h-2.952l-2.928 7.469-1.195-6.33c-.11-.725-.665-1.139-1.345-1.139H5.02zm14.312 0l-2.316 10.985h2.815l2.308-10.985H19.33zm15.699 0c-.679 0-1.039.367-1.302 1.007l-4.124 9.978h2.952l.57-1.663h3.597l.347 1.663h2.604L37.402 9.318H35.03zm.384 2.968l.875 4.122h-2.344l1.469-4.122z" fill="#000"/><rect x=".5" y=".5" width="43.634" height="29" rx="1.5" stroke="#000" stroke-opacity=".2"/></svg>