<svg width="45" height="35" viewBox="0 0 45 35" fill="none" xmlns="http://www.w3.org/2000/svg">
<path d="M6.53846 34.5H38.0974C41.7028 34.5 44.6359 31.5669 44.6359 27.9615V7.03846C44.6359 3.43311 41.7028 0.5 38.0974 0.5H6.53846C2.93311 0.5 0 3.43311 0 7.03846V27.9615C0 31.5669 2.93311 34.5 6.53846 34.5ZM2.61538 7.03846C2.61538 4.87532 4.37532 3.11538 6.53846 3.11538H38.0974C40.2606 3.11538 42.0205 4.87532 42.0205 7.03846V27.9615C42.0205 30.1247 40.2606 31.8846 38.0974 31.8846H6.53846C4.37532 31.8846 2.61538 30.1247 2.61538 27.9615V7.03846Z" fill="#FF1A25"/>
<path d="M15.7793 8.73926V26.515L31.5152 17.4814L15.7793 8.73926ZM18.3947 13.184L26.1972 17.5188L18.3947 21.998V13.184Z" fill="#FF1A25"/>
</svg>
