<svg width="31" height="31" viewBox="0 0 31 31" fill="none" xmlns="http://www.w3.org/2000/svg">
<g clip-path="url(#clip0_117_75)">
<path d="M16.3996 16.8607C12.7996 16.8607 9.87461 13.8892 9.87461 10.2321C9.87461 6.57494 12.7996 3.60352 16.3996 3.60352C19.9996 3.60352 22.9246 6.57494 22.9246 10.2321C22.9246 13.8892 19.9996 16.8607 16.3996 16.8607ZM16.3996 5.20352C13.6996 5.20352 11.5621 7.37494 11.5621 10.1178C11.5621 12.8607 13.6996 15.0321 16.3996 15.0321C19.0996 15.0321 21.2371 12.8607 21.2371 10.1178C21.2371 7.37494 19.0996 5.20352 16.3996 5.20352ZM27.4246 26.6892L25.8496 23.7178C25.2444 22.5512 24.3386 21.5735 23.229 20.8891C22.1194 20.2047 20.8477 19.8394 19.5496 19.8321H12.0121C9.08711 19.8321 6.49961 21.5464 5.37461 24.2892L4.36211 26.5749L2.78711 25.8892L3.79961 23.6035C5.14961 20.2892 8.41211 18.1178 11.8996 18.1178H19.4371C22.6996 18.1178 25.7371 19.9464 27.3121 22.9178L28.8871 25.8892L27.4246 26.6892Z" fill="black"/>
</g>
<defs>
<clipPath id="clip0_117_75">
<rect width="27" height="24" fill="white" transform="translate(2 3.375)"/>
</clipPath>
</defs>
</svg>
