<svg width="26" height="25" viewBox="0 0 26 25" fill="none" xmlns="http://www.w3.org/2000/svg">
<path d="M0 20.0363H5.2727V25L10.2364 20.0363H25.309V0H0V20.0363ZM1.05454 1.05454H24.2544V18.9817H9.79985L6.32724 22.4543V18.9817H1.05454V1.05454Z" fill="black"/>
<path d="M8.43633 10.0181C8.43633 8.85498 7.4904 7.90906 6.32724 7.90906C5.16409 7.90906 4.21816 8.85498 4.21816 10.0181C4.21816 11.1813 5.16409 12.1272 6.32724 12.1272C7.4904 12.1272 8.43633 11.1813 8.43633 10.0181ZM5.2727 10.0181C5.2727 9.43656 5.74567 8.9636 6.32724 8.9636C6.90882 8.9636 7.38179 9.43656 7.38179 10.0181C7.38179 10.5997 6.90882 11.0727 6.32724 11.0727C5.74567 11.0727 5.2727 10.5997 5.2727 10.0181Z" fill="black"/>
<path d="M12.6545 12.1272C13.8176 12.1272 14.7636 11.1813 14.7636 10.0181C14.7636 8.85498 13.8176 7.90906 12.6545 7.90906C11.4913 7.90906 10.5454 8.85498 10.5454 10.0181C10.5454 11.1813 11.4913 12.1272 12.6545 12.1272ZM12.6545 8.9636C13.2361 8.9636 13.709 9.43656 13.709 10.0181C13.709 10.5997 13.2361 11.0727 12.6545 11.0727C12.0729 11.0727 11.5999 10.5997 11.5999 10.0181C11.5999 9.43656 12.0729 8.9636 12.6545 8.9636Z" fill="black"/>
<path d="M18.9817 12.1272C20.1449 12.1272 21.0908 11.1813 21.0908 10.0181C21.0908 8.85498 20.1449 7.90906 18.9817 7.90906C17.8186 7.90906 16.8727 8.85498 16.8727 10.0181C16.8727 11.1813 17.8186 12.1272 18.9817 12.1272ZM18.9817 8.9636C19.5633 8.9636 20.0363 9.43656 20.0363 10.0181C20.0363 10.5997 19.5633 11.0727 18.9817 11.0727C18.4002 11.0727 17.9272 10.5997 17.9272 10.0181C17.9272 9.43656 18.4002 8.9636 18.9817 8.9636Z" fill="black"/>
</svg>
