<svg width="30" height="31" viewBox="0 0 30 31" fill="none" xmlns="http://www.w3.org/2000/svg">
<path fill-rule="evenodd" clip-rule="evenodd" d="M12 8C12 6.34315 13.3431 5 15 5C16.6569 5 18 6.34315 18 8V8.5H12V8ZM10.5 10V11.75C10.5 12.1642 10.8358 12.5 11.25 12.5C11.6642 12.5 12 12.1642 12 11.75V10H18V11.75C18 12.1642 18.3358 12.5 18.75 12.5C19.1642 12.5 19.5 12.1642 19.5 11.75V10H21.8055L22.9401 24.75H7.05991L8.19453 10H10.5ZM10.5 8.5V8C10.5 5.51472 12.5147 3.5 15 3.5C17.4853 3.5 19.5 5.51472 19.5 8V8.5H22.5C22.8919 8.5 23.2177 8.80173 23.2478 9.19248L24.4978 25.4425C24.5138 25.6508 24.4422 25.8563 24.3003 26.0096C24.1584 26.1629 23.9589 26.25 23.75 26.25H6.25C6.04109 26.25 5.84165 26.1629 5.69971 26.0096C5.55777 25.8563 5.48619 25.6508 5.50221 25.4425L6.75221 9.19248C6.78227 8.80173 7.1081 8.5 7.5 8.5H10.5Z" fill="white"/>
</svg>
