<svg width="30" height="30" viewBox="0 0 30 30" fill="none" xmlns="http://www.w3.org/2000/svg">
<path fill-rule="evenodd" clip-rule="evenodd" d="M12 7.5C12 5.84315 13.3431 4.5 15 4.5C16.6569 4.5 18 5.84315 18 7.5V8H12V7.5ZM10.5 9.5V11.25C10.5 11.6642 10.8358 12 11.25 12C11.6642 12 12 11.6642 12 11.25V9.5H18V11.25C18 11.6642 18.3358 12 18.75 12C19.1642 12 19.5 11.6642 19.5 11.25V9.5H21.8055L22.9401 24.25H7.05991L8.19453 9.5H10.5ZM10.5 8V7.5C10.5 5.01472 12.5147 3 15 3C17.4853 3 19.5 5.01472 19.5 7.5V8H22.5C22.8919 8 23.2177 8.30173 23.2478 8.69248L24.4978 24.9425C24.5138 25.1508 24.4422 25.3563 24.3003 25.5096C24.1584 25.6629 23.9589 25.75 23.75 25.75H6.25C6.04109 25.75 5.84165 25.6629 5.69971 25.5096C5.55777 25.3563 5.48619 25.1508 5.50221 24.9425L6.75221 8.69248C6.78227 8.30173 7.1081 8 7.5 8H10.5Z" fill="black"/>
</svg>
