<svg width="26" height="30" viewBox="0 0 26 30" fill="none" xmlns="http://www.w3.org/2000/svg">
<path d="M24 27.5188V10.4788C23.9992 9.82129 23.7377 9.19095 23.2727 8.72603C22.8078 8.26111 22.1775 7.99957 21.52 7.99878H4.48C3.82251 7.99957 3.19217 8.26111 2.72725 8.72603C2.26233 9.19095 2.00079 9.82129 2 10.4788V27.5188C2.00079 28.1763 2.26233 28.8066 2.72725 29.2715C3.19217 29.7364 3.82251 29.998 4.48 29.9988H21.52C22.1775 29.998 22.8078 29.7364 23.2727 29.2715C23.7377 28.8066 23.9992 28.1763 24 27.5188ZM21.52 28.9988H15.5V14.9988H23V27.5188C22.9995 27.9111 22.8434 28.2873 22.5659 28.5647C22.2885 28.8422 21.9124 28.9983 21.52 28.9988ZM14.5 14.9988V28.9988H11.5V14.9988H14.5ZM11.5 13.9988V8.99878H14.5V13.9988H11.5ZM23 10.4788V13.9988H15.5V8.99878H21.52C21.9124 8.99931 22.2885 9.15541 22.5659 9.43285C22.8434 9.71029 22.9995 10.0864 23 10.4788ZM4.48 8.99878H10.5V13.9988H3V10.4788C3.00053 10.0864 3.15663 9.71029 3.43407 9.43285C3.71151 9.15541 4.08764 8.99931 4.48 8.99878ZM3 27.5188V14.9988H10.5V28.9988H4.48C4.08764 28.9983 3.71151 28.8422 3.43407 28.5647C3.15663 28.2873 3.00053 27.9111 3 27.5188Z" fill="#E70000"/>
<path d="M4.5 6.99876H21.5C22.4279 6.99982 23.3176 7.36891 23.9737 8.02506C24.6299 8.6812 24.9989 9.57083 25 10.4988H26C25.9985 9.30573 25.524 8.16199 24.6804 7.31839C23.8368 6.47479 22.693 6.00022 21.5 5.99876H18.445C18.801 5.65134 19.0787 5.23198 19.2597 4.76867C19.4407 4.30536 19.5207 3.80878 19.4945 3.31207C19.4682 2.81536 19.3363 2.32997 19.1075 1.8883C18.8788 1.44664 18.5584 1.05887 18.1678 0.750887C17.7772 0.442905 17.3254 0.221801 16.8426 0.10234C16.3597 -0.0171206 15.857 -0.0321887 15.3678 0.058142C14.8787 0.148473 14.4145 0.342123 14.0062 0.626161C13.5978 0.9102 13.2548 1.27809 13 1.70526C12.7452 1.27809 12.4022 0.9102 11.9938 0.626161C11.5855 0.342123 11.1213 0.148473 10.6322 0.058142C10.143 -0.0321887 9.64026 -0.0171206 9.15742 0.10234C8.67457 0.221801 8.22278 0.442905 7.8322 0.750887C7.44162 1.05887 7.12124 1.44664 6.89246 1.8883C6.66369 2.32997 6.53178 2.81536 6.50554 3.31207C6.4793 3.80878 6.55935 4.30536 6.74032 4.76867C6.9213 5.23198 7.19904 5.65134 7.555 5.99876H4.5C3.30697 6.00022 2.16323 6.47479 1.31963 7.31839C0.476028 8.16199 0.00145548 9.30573 0 10.4988H1C1.00106 9.57083 1.37015 8.6812 2.0263 8.02506C2.68244 7.36891 3.57207 6.99982 4.5 6.99876ZM16 0.99876C16.663 0.99876 17.2989 1.26215 17.7678 1.73099C18.2366 2.19983 18.5 2.83572 18.5 3.49876C18.5 4.1618 18.2366 4.79769 17.7678 5.26653C17.2989 5.73537 16.663 5.99876 16 5.99876H13.5V3.49876C13.5008 2.83596 13.7644 2.20054 14.2331 1.73187C14.7018 1.2632 15.3372 0.999554 16 0.99876ZM7.5 3.49876C7.5 2.83572 7.76339 2.19983 8.23223 1.73099C8.70107 1.26215 9.33696 0.99876 10 0.99876C10.663 0.99876 11.2989 1.26215 11.7678 1.73099C12.2366 2.19983 12.5 2.83572 12.5 3.49876V5.99876H10C9.3372 5.99797 8.70178 5.73432 8.23311 5.26565C7.76444 4.79698 7.50079 4.16156 7.5 3.49876Z" fill="#E70000"/>
</svg>
