<svg width="70" height="71" viewBox="0 0 70 71" fill="none" xmlns="http://www.w3.org/2000/svg">
<rect y="0.5" width="70" height="70" fill="#F0F0F0"/>
<path d="M34.5 19.75C35.1904 19.75 35.75 19.1904 35.75 18.5C35.75 17.8096 35.1904 17.25 34.5 17.25V19.75ZM21.293 49.3093C21.783 49.7956 22.5744 49.7925 23.0607 49.3025C23.547 48.8125 23.544 48.021 23.0539 47.5347L21.293 49.3093ZM30.9599 25.3066C30.577 25.881 30.7322 26.6571 31.3066 27.0401C31.881 27.423 32.6571 27.2678 33.0401 26.6934L30.9599 25.3066ZM37 18.5L38.0401 19.1934C38.423 18.619 38.2678 17.8429 37.6934 17.4599L37 18.5ZM30.1934 12.4599C29.619 12.077 28.8429 12.2322 28.4599 12.8066C28.077 13.381 28.2322 14.1571 28.8066 14.5401L30.1934 12.4599ZM34.5 52.172C33.8096 52.172 33.25 52.7316 33.25 53.422C33.25 54.1123 33.8096 54.672 34.5 54.672V52.172ZM47.707 22.6127C47.217 22.1264 46.4256 22.1294 45.9393 22.6195C45.453 23.1095 45.456 23.9009 45.9461 24.3872L47.707 22.6127ZM38.0401 46.6934C38.423 46.119 38.2678 45.3429 37.6934 44.9599C37.119 44.577 36.3429 44.7322 35.9599 45.3066L38.0401 46.6934ZM32 53.5L30.9599 52.8066C30.577 53.381 30.7322 54.1571 31.3066 54.5401L32 53.5ZM38.8066 59.5401C39.381 59.923 40.1571 59.7678 40.5401 59.1934C40.923 58.619 40.7678 57.8429 40.1934 57.4599L38.8066 59.5401ZM34.5 17.25C24.1447 17.25 15.75 25.6447 15.75 36H18.25C18.25 27.0254 25.5254 19.75 34.5 19.75V17.25ZM15.75 36C15.75 41.2034 17.8712 45.9136 21.293 49.3093L23.0539 47.5347C20.0858 44.5892 18.25 40.5102 18.25 36H15.75ZM33.0401 26.6934L38.0401 19.1934L35.9599 17.8066L30.9599 25.3066L33.0401 26.6934ZM37.6934 17.4599L30.1934 12.4599L28.8066 14.5401L36.3066 19.5401L37.6934 17.4599ZM34.5 54.672C44.8553 54.672 53.25 46.2773 53.25 35.922H50.75C50.75 44.8966 43.4746 52.172 34.5 52.172V54.672ZM53.25 35.922C53.25 30.7186 51.1288 26.0083 47.707 22.6127L45.9461 24.3872C48.9142 27.3327 50.75 31.4118 50.75 35.922H53.25ZM35.9599 45.3066L30.9599 52.8066L33.0401 54.1934L38.0401 46.6934L35.9599 45.3066ZM31.3066 54.5401L38.8066 59.5401L40.1934 57.4599L32.6934 52.4599L31.3066 54.5401Z" fill="black"/>
</svg>
