<svg width="70" height="71" viewBox="0 0 70 71" fill="none" xmlns="http://www.w3.org/2000/svg">
<rect y="0.5" width="70" height="70" fill="#F0F0F0"/>
<g clip-path="url(#clip0_211_394)">
<path fill-rule="evenodd" clip-rule="evenodd" d="M27.0348 55.6911C24.9853 55.6911 23.0067 54.4626 21.6364 52.2773C20.4728 50.4286 16.0313 33.6132 16.1671 30.5419C16.2734 28.0435 17.4665 23.5665 24.5069 21.8596C24.5423 21.8596 24.5423 21.8596 24.5777 21.8596C28.6413 21.3103 31.5118 22.1667 32.6753 24.2517C33.9039 26.4724 32.9825 29.7859 30.2183 33.1053C30.1829 33.1348 30.1829 33.1348 30.1474 33.1702C29.9761 33.3061 26.2197 36.6254 30.2478 41.8526C32.9175 45.3727 33.6322 49.0996 32.2678 52.106C31.3405 54.1555 29.4623 55.5198 27.4128 55.6911C27.2769 55.6911 27.1765 55.6911 27.0348 55.6911ZM24.749 23.0231C18.8013 24.4938 17.437 27.9431 17.3307 30.5714C17.2303 33.4419 21.536 49.9147 22.6287 51.6276C23.8926 53.6062 25.5346 54.5984 27.3124 54.498C28.9189 54.3917 30.4191 53.2636 31.1751 51.6276C32.3682 49.0288 31.6535 45.7448 29.291 42.5672C24.814 36.7613 28.848 32.7273 29.3264 32.2843C31.7185 29.4492 32.5749 26.5729 31.6181 24.8305C30.7262 23.1944 28.2692 22.5447 24.749 23.0231Z" fill="black"/>
<path fill-rule="evenodd" clip-rule="evenodd" d="M31.0329 21.6176C30.9324 21.6176 30.8616 21.6176 30.7612 21.5881C30.3182 21.5172 29.9402 21.2455 29.6331 20.8321C29.1546 20.1529 28.9834 19.1252 29.1546 18.1034C29.4972 16.2901 30.6608 15.1266 31.8538 15.3333C33.0528 15.54 33.7321 17.0756 33.4249 18.8535C33.2891 19.639 32.9819 20.3537 32.539 20.8675C32.096 21.3459 31.5467 21.6176 31.0329 21.6176ZM31.5821 16.4968C31.1746 16.4968 30.5544 17.1465 30.3536 18.3042C30.2178 19.1606 30.3832 19.8103 30.6253 20.1529C30.7257 20.2887 30.8616 20.3891 30.9679 20.4245C31.1392 20.46 31.4109 20.3241 31.6176 20.082C31.9247 19.7394 32.1314 19.2256 32.2318 18.6467C32.4681 17.4537 32.0251 16.5618 31.653 16.4968C31.6176 16.4968 31.6176 16.4968 31.5821 16.4968Z" fill="black"/>
<path fill-rule="evenodd" clip-rule="evenodd" d="M26.5551 21.0029C26.183 21.0029 25.805 20.8316 25.4979 20.5599C24.984 20.0815 24.6769 19.2605 24.6414 18.3391C24.6119 16.833 25.3974 15.6399 26.4192 15.6045C27.5119 15.6045 28.3329 16.7326 28.3683 18.2683C28.4038 19.7744 27.6182 20.9734 26.5905 21.0029C26.5905 21.0029 26.5905 21.0029 26.5551 21.0029ZM26.4901 16.8035C26.248 16.833 25.8404 17.4177 25.8759 18.3391C25.8759 19.0243 26.1475 19.5027 26.3543 19.7035C26.4192 19.7744 26.4901 19.8452 26.5905 19.8098C26.8327 19.8098 27.2402 19.2251 27.2048 18.2683C27.1753 17.3823 26.7618 16.833 26.4901 16.8035Z" fill="black"/>
<path fill-rule="evenodd" clip-rule="evenodd" d="M22.6279 21.7594C21.6357 21.7594 20.8501 20.6963 20.8147 19.2965C20.7852 18.44 21.0568 17.6545 21.4998 17.2115C21.7715 16.9398 22.1141 16.7686 22.4921 16.7686C22.8642 16.7686 23.2068 16.9044 23.5139 17.1761C23.9923 17.625 24.2699 18.3751 24.3053 19.1961C24.3053 20.6313 23.6202 21.724 22.6279 21.7594ZM22.5275 17.9616C22.4567 17.9616 22.3858 17.9971 22.3562 18.0325C22.185 18.2038 22.0137 18.6113 22.0137 19.261C22.0491 20.0466 22.3858 20.5604 22.5925 20.5604C22.7638 20.5604 23.1063 20.0466 23.0709 19.2256C23.0709 18.6113 22.8347 18.2038 22.6634 18.0679C22.6634 17.9971 22.5925 17.9616 22.5275 17.9616Z" fill="black"/>
<path fill-rule="evenodd" clip-rule="evenodd" d="M19.0093 23.3305C18.0525 23.3305 17.2965 22.3382 17.2669 21.0034C17.2315 19.6745 17.9166 18.6468 18.838 18.6113C18.838 18.6113 18.838 18.6113 18.8735 18.6113C19.7949 18.6113 20.545 19.6036 20.5804 20.9384C20.6158 22.2378 19.9307 23.2951 19.0093 23.3305ZM18.903 19.7749C18.7672 19.8103 18.46 20.2533 18.4955 20.9739C18.5309 21.724 18.8735 22.1315 19.0093 22.1315C19.1097 22.1315 19.4523 21.724 19.4168 20.9384C19.3814 20.2179 19.0388 19.8103 18.903 19.7749Z" fill="black"/>
<path fill-rule="evenodd" clip-rule="evenodd" d="M15.6592 26.5083C15.3521 26.5083 15.0095 26.3725 14.7319 26.0949C14.2889 25.6874 13.9818 24.9372 13.9818 24.1163C13.9463 22.746 14.6315 21.6888 15.5883 21.6533C15.5883 21.6533 15.5883 21.6533 15.6237 21.6533C16.5806 21.6533 17.3307 22.681 17.3661 24.0454C17.4016 24.8664 17.124 25.6165 16.681 26.0654C16.4093 26.337 16.0667 26.5083 15.7242 26.5083C15.6887 26.5083 15.6887 26.5083 15.6592 26.5083ZM15.6237 22.8523C15.4879 22.8877 15.1453 23.3307 15.1808 24.0808C15.1808 24.6301 15.3816 25.0377 15.5529 25.2089C15.5883 25.2444 15.6592 25.2798 15.6887 25.2798C15.7596 25.2798 15.8305 25.2089 15.86 25.2089C16.0313 25.0377 16.2026 24.5947 16.2026 24.0454C16.1671 23.3307 15.8305 22.8877 15.6237 22.8523Z" fill="black"/>
<path fill-rule="evenodd" clip-rule="evenodd" d="M18.8729 32.2487C18.5304 32.2487 18.2528 31.9416 18.2882 31.6345C18.3945 29.4491 18.5599 25.7872 24.543 24.3224C24.8502 24.2516 25.1927 24.4228 25.2636 24.7654C25.3286 25.0725 25.1573 25.4151 24.8147 25.4801C19.688 26.7145 19.5522 29.585 19.4518 31.6995C19.4518 32.0066 19.1801 32.2487 18.8729 32.2487Z" fill="black"/>
<path fill-rule="evenodd" clip-rule="evenodd" d="M42.9275 55.6913C42.7916 55.6913 42.6853 55.6913 42.5494 55.6913C40.4999 55.5554 38.6217 54.1911 37.7003 52.1061C36.3301 49.0998 37.0861 45.3729 39.7144 41.8527C43.7484 36.5902 39.9566 33.2767 39.8148 33.135C39.7853 33.1054 39.7853 33.1054 39.7498 33.07C36.9798 29.7861 36.0584 26.4726 37.3223 24.2518C38.4859 22.1315 41.3564 21.2809 45.4199 21.8598C45.4554 21.8598 45.4554 21.8598 45.4908 21.8598C52.4957 23.5667 53.7597 28.0083 53.8601 30.5421C54.0018 33.6134 49.5248 50.4287 48.3613 52.307C46.9615 54.4628 45.0124 55.6913 42.9275 55.6913ZM40.6358 32.2845C41.1142 32.7274 45.1482 36.7615 40.6712 42.5674C38.2792 45.7155 37.594 49.0289 38.793 51.5923C39.5431 53.2638 41.0138 54.3624 42.6558 54.4628C44.4336 54.5632 46.0696 53.5709 47.3336 51.5923C48.2609 50.1216 52.7674 33.6843 52.667 30.5421C52.5312 27.9079 51.1314 24.4586 45.2191 22.9879C41.6989 22.5095 39.2714 23.1592 38.35 24.8011C37.3932 26.573 38.2792 29.4494 40.6358 32.2845Z" fill="black"/>
<path fill-rule="evenodd" clip-rule="evenodd" d="M38.9637 21.618C37.8711 21.618 36.8433 20.4604 36.5362 18.8539C36.2645 17.0761 36.9438 15.5404 38.1073 15.3337C39.3358 15.127 40.4639 16.326 40.8065 18.1038C41.1136 19.8461 40.4344 21.3818 39.2354 21.5885C39.135 21.618 39.0641 21.618 38.9637 21.618ZM38.314 16.4972C37.936 16.5622 37.5285 17.4541 37.7293 18.6471C37.936 19.7398 38.5857 20.4958 39.0287 20.425C39.4067 20.3541 39.8142 19.5036 39.6134 18.3046C39.4421 17.1765 38.7924 16.4264 38.314 16.4972Z" fill="black"/>
<path fill-rule="evenodd" clip-rule="evenodd" d="M43.4042 21.0039H43.3688C42.347 20.9743 41.5556 19.7753 41.591 18.2692C41.6264 16.7336 42.4828 15.6055 43.5401 15.6055C44.5678 15.6409 45.3533 16.834 45.3179 18.3401C45.2825 19.2261 44.9753 20.047 44.4615 20.5609C44.1543 20.868 43.7822 21.0039 43.4042 21.0039ZM43.5046 16.8045C43.233 16.8045 42.8254 17.3833 42.79 18.2692C42.7545 19.1965 43.1975 19.8108 43.4042 19.8108C43.5046 19.8108 43.5755 19.7399 43.6405 19.7045C43.8472 19.5037 44.0894 19.0252 44.1189 18.3401C44.1189 17.4187 43.7468 16.834 43.5046 16.8045Z" fill="black"/>
<path fill-rule="evenodd" clip-rule="evenodd" d="M47.3681 21.7594C46.3758 21.724 45.6611 20.5959 45.6966 19.1961C45.7261 18.3751 46.0037 17.625 46.4821 17.1761C46.7892 16.9044 47.1318 16.7686 47.5039 16.7686C47.8819 16.7686 48.2245 16.9398 48.5316 17.247C48.9746 17.7254 49.2168 18.5109 49.1813 19.3319C49.1104 20.6963 48.3603 21.7594 47.3681 21.7594ZM47.4389 17.9616C47.3681 17.9616 47.3326 17.9971 47.2677 18.0325C47.0964 18.2038 46.8897 18.6113 46.8542 19.1961C46.8247 20.0466 47.1968 20.525 47.3681 20.525C47.5394 20.525 47.9174 20.0466 47.9174 19.2256C47.9469 18.6113 47.7461 18.2038 47.6102 18.0325C47.6102 18.0325 47.5039 17.9616 47.4389 17.9616Z" fill="black"/>
<path fill-rule="evenodd" clip-rule="evenodd" d="M50.9887 23.3305C50.0318 23.2951 49.3526 22.2674 49.388 20.9384C49.4176 19.6036 50.1381 18.6113 51.095 18.6113C51.095 18.6113 51.095 18.6113 51.1304 18.6113C52.0518 18.6468 52.7369 19.6745 52.7015 21.0034C52.6661 22.3382 51.916 23.3305 50.9887 23.3305ZM51.0595 19.7749C50.9237 19.8103 50.5811 20.1824 50.5457 20.9384C50.5102 21.6885 50.8528 22.0961 50.9887 22.1315C51.095 22.1315 51.4671 21.724 51.4671 20.9739C51.5025 20.2533 51.2308 19.8103 51.0595 19.7749Z" fill="black"/>
<path fill-rule="evenodd" clip-rule="evenodd" d="M54.2712 26.5083H54.2357C53.8931 26.5083 53.5506 26.3725 53.2789 26.0654C52.8359 25.6165 52.5938 24.8664 52.5938 24.0454C52.6292 22.681 53.3793 21.6533 54.3361 21.6533C54.3361 21.6533 54.3361 21.6533 54.3716 21.6533C55.3284 21.6888 56.049 22.7814 56.0135 24.1163C55.9426 25.4806 55.1925 26.5083 54.2712 26.5083ZM54.3361 22.8523C54.1353 22.8877 53.8282 23.3307 53.7927 24.0454C53.7927 24.5947 53.964 25.0377 54.1353 25.2089C54.1707 25.2444 54.2003 25.2798 54.2712 25.2798C54.4424 25.2798 54.785 24.8664 54.8145 24.0454C54.85 23.3662 54.5074 22.8877 54.3361 22.8523Z" fill="black"/>
<path fill-rule="evenodd" clip-rule="evenodd" d="M51.0958 32.2498C50.7886 32.2498 50.511 32.0077 50.511 31.7006V31.671C50.4106 29.5861 50.2748 26.7156 45.1835 25.4812C44.8764 25.4162 44.6697 25.0736 44.7405 24.7665C44.8055 24.4594 45.1481 24.2527 45.4552 24.3235C51.4383 25.7883 51.6096 29.4148 51.71 31.6001C51.71 31.9427 51.4679 32.2144 51.0958 32.2498C51.1312 32.2498 51.1312 32.2498 51.0958 32.2498Z" fill="black"/>
</g>
<defs>
<clipPath id="clip0_211_394">
<rect width="42" height="42" fill="white" transform="translate(14 14.5)"/>
</clipPath>
</defs>
</svg>
