<svg width="24" height="19" viewBox="0 0 24 19" fill="none" xmlns="http://www.w3.org/2000/svg">
<path d="M3.51562 18.2812H20.4844C22.4229 18.2812 24 16.7042 24 14.7656V3.51562C24 1.57709 22.4229 0 20.4844 0H3.51562C1.57709 0 0 1.57709 0 3.51562V14.7656C0 16.7042 1.57709 18.2812 3.51562 18.2812ZM1.40625 3.51562C1.40625 2.35254 2.35254 1.40625 3.51562 1.40625H20.4844C21.6475 1.40625 22.5938 2.35254 22.5938 3.51562V14.7656C22.5938 15.9287 21.6475 16.875 20.4844 16.875H3.51562C2.35254 16.875 1.40625 15.9287 1.40625 14.7656V3.51562Z" fill="black"/>
<path d="M8.48438 4.42993V13.9877L16.9453 9.13043L8.48438 4.42993ZM9.89062 6.81982L14.0859 9.15057L9.89062 11.559V6.81982Z" fill="black"/>
</svg>
