<svg width="36" height="51" viewBox="0 0 36 51" fill="none" xmlns="http://www.w3.org/2000/svg">
<g clip-path="url(#clip0_198_813)">
<path fill-rule="evenodd" clip-rule="evenodd" d="M17.6471 0.5C7.89076 0.5 0 8.325 0 18C0 28.425 11.1429 42.8 15.7311 48.275C16.7395 49.475 18.5798 49.475 19.5882 48.275C24.1513 42.8 35.2941 28.425 35.2941 18C35.2941 8.325 27.4034 0.5 17.6471 0.5ZM17.6471 24.25C14.1681 24.25 11.3445 21.45 11.3445 18C11.3445 14.55 14.1681 11.75 17.6471 11.75C21.126 11.75 23.9496 14.55 23.9496 18C23.9496 21.45 21.126 24.25 17.6471 24.25Z" fill="#1D1D1D"/>
</g>
<defs>
<clipPath id="clip0_198_813">
<rect width="35.2941" height="50" fill="white" transform="translate(0 0.5)"/>
</clipPath>
</defs>
</svg>
