<svg width="525" height="84" viewBox="0 0 525 84" fill="none" xmlns="http://www.w3.org/2000/svg">
<path d="M118.2 3.13373C107.533 6.46706 97.7998 15.0004 93.5332 24.6004C88.9998 35.0004 89.2665 49.4004 94.1998 59.5337C101.8 75.0004 114.466 81.5337 139.4 82.6004L155 83.4004V74.0671V64.7337L142.333 63.9337C123.266 62.8671 114.733 57.5337 111.666 45.2671C109.4 36.2004 115 26.0671 125 21.5337C129.666 19.4004 134.2 19.0004 161.4 19.0004H192.333V9.66706V0.333729L159.4 0.467062C130.466 0.467062 125.266 0.867062 118.2 3.13373Z" fill="white"/>
<path d="M223.533 3.13352C206.067 8.60019 195.8 23.0002 195.8 41.8002C195.8 54.3335 200.2 64.4669 208.6 71.6669C218.467 80.0669 226.333 82.2002 247.667 82.2002C263.8 82.2002 267.4 81.8002 273.8 79.2669C294.467 71.1335 304.6 50.4669 298.467 29.0002C296.6 22.8669 294.6 19.6669 288.467 13.5335C282.067 7.26686 279.267 5.40019 271.8 3.13352C259.4 -0.733142 235.4 -0.733142 223.533 3.13352ZM267.4 22.2002C274.067 25.5335 277.933 31.2669 278.733 39.1335C279.933 51.5335 272.867 60.2002 259.4 63.0002C249.667 65.1335 235.133 63.8002 228.333 60.3335C211.667 51.8002 212.733 29.5335 230.333 21.4002C237.667 18.0669 259.8 18.4669 267.4 22.2002Z" fill="white"/>
<path d="M0.333252 41.667V81.667H41.6666H82.9999V72.3337V63.0003H52.3333H21.6666V57.0003V51.0003H52.3333H82.9999V41.667V32.3337H52.3333H21.6666V26.3337V20.3337H52.3333H82.9999V11.0003V1.66699H41.6666H0.333252V41.667Z" fill="white"/>
<path d="M305.667 41.667V81.667H316.333H327V41.667V1.66699H316.333H305.667V41.667Z" fill="white"/>
<path d="M353.133 3.13365C340.733 6.06699 334.467 13.667 334.333 25.667C334.333 35.4003 337.8 41.267 346.2 45.5337C352.2 48.6003 354.467 48.867 377.267 49.5337C399.667 50.2003 402.067 50.6003 403.8 52.867C406.067 56.067 406.067 56.6003 403.8 59.8003C402.067 62.2003 399.8 62.3337 369.8 62.7337L337.667 63.1337V72.467V81.667H367.4C400.067 81.667 409.267 80.3337 417.267 74.2003C423.267 69.667 425.667 64.467 425.667 56.2003C425.667 46.6003 421.8 40.2003 413.133 35.5337C406.6 31.9337 405.4 31.8003 382.333 31.0003C369.133 30.6003 357.533 29.8003 356.733 29.267C354.2 27.667 354.733 23.267 357.533 21.667C359.133 20.867 372.067 20.3337 390.2 20.3337H420.333V11.0003V1.66699L389.4 1.80032C372.333 1.93365 355.933 2.46699 353.133 3.13365Z" fill="white"/>
<path d="M427 11.0003V20.3337H445.667H464.333V51.0003V81.667H475H485.667V51.0003V20.3337H505H524.333V11.0003V1.66699H475.667H427V11.0003Z" fill="white"/>
<path d="M146.467 53.9337C152.2 60.067 161 68.7337 165.8 73.267L174.6 81.667H188.2H201.667L181.933 62.3337L162.333 43.1337L149.133 43.0003H135.933L146.467 53.9337Z" fill="white"/>
</svg>
