<svg width="20" height="16" viewBox="0 0 20 16" fill="none" xmlns="http://www.w3.org/2000/svg">
<path d="M1 1V0.375C0.654822 0.375 0.375 0.654822 0.375 1L1 1ZM19.2857 1H19.9107C19.9107 0.654822 19.6309 0.375 19.2857 0.375V1ZM19.2857 15.2222V15.8472C19.6309 15.8472 19.9107 15.5674 19.9107 15.2222H19.2857ZM1 15.2222H0.375C0.375 15.5674 0.654822 15.8472 1 15.8472L1 15.2222ZM1.30353 2.4854C1.00179 2.31776 0.621285 2.42648 0.453652 2.72822C0.286018 3.02996 0.394733 3.41046 0.696473 3.57809L1.30353 2.4854ZM10.1429 8.11111L9.83933 8.65746C10.0281 8.76233 10.2576 8.76233 10.4464 8.65746L10.1429 8.11111ZM19.5892 3.57809C19.891 3.41046 19.9997 3.02996 19.8321 2.72822C19.6644 2.42648 19.2839 2.31776 18.9822 2.4854L19.5892 3.57809ZM1 1.625H19.2857V0.375H1V1.625ZM18.6607 1V15.2222H19.9107V1H18.6607ZM19.2857 14.5972H1V15.8472H19.2857V14.5972ZM1.625 15.2222V1H0.375V15.2222H1.625ZM0.696473 3.57809L9.83933 8.65746L10.4464 7.56476L1.30353 2.4854L0.696473 3.57809ZM10.4464 8.65746L19.5892 3.57809L18.9822 2.4854L9.83933 7.56476L10.4464 8.65746Z" fill="#E70000"/>
</svg>
