<svg width="45" height="30" viewBox="0 0 45 30" fill="none" xmlns="http://www.w3.org/2000/svg">
<rect x="0.633789" width="43.9024" height="30" rx="2" fill="white"/>
<path d="M18.8477 8.02847H26.3217V21.7939H18.8477V8.02847Z" fill="#7A7A7A"/>
<path d="M19.3223 14.9111C19.3223 12.1143 20.6036 9.63359 22.5729 8.02844C21.1256 6.86106 19.2986 6.15576 17.3055 6.15576C12.5838 6.15576 8.76367 10.0714 8.76367 14.9111C8.76367 19.7509 12.5838 23.6665 17.3055 23.6665C19.2986 23.6665 21.1256 22.9612 22.5729 21.7938C20.6036 20.213 19.3223 17.708 19.3223 14.9111Z" fill="black"/>
<path d="M36.406 14.9111C36.406 19.7509 32.5859 23.6665 27.8641 23.6665C25.871 23.6665 24.044 22.9612 22.5967 21.7938C24.5898 20.1887 25.8473 17.708 25.8473 14.9111C25.8473 12.1143 24.566 9.63359 22.5967 8.02844C24.044 6.86106 25.871 6.15576 27.8641 6.15576C32.5859 6.15576 36.406 10.0957 36.406 14.9111Z" fill="#ADADAD"/>
<rect x="1.13379" y="0.5" width="42.9024" height="29" rx="1.5" stroke="black" stroke-opacity="0.2"/>
</svg>
