<svg width="40" height="50" viewBox="0 0 40 50" fill="none" xmlns="http://www.w3.org/2000/svg">
<path d="M38.7041 26.28C38.0602 25.6381 37.2644 25.2352 36.4326 25.0712C37.2221 23.4283 36.9354 21.3933 35.571 20.033C34.9272 19.3912 34.1313 18.9882 33.2995 18.8242C34.089 17.1813 33.8024 15.1463 32.4379 13.786C31.8678 13.2176 31.1785 12.8365 30.45 12.6444L35.571 7.53905C37.2989 5.81641 37.2989 3.01462 35.571 1.29198C33.8431 -0.43066 31.0328 -0.43066 29.3049 1.29198L10.9907 19.5505L8.83827 13.1098C8.51407 12.1399 7.95791 11.245 7.23263 10.522C5.58154 8.87589 2.89802 8.87742 1.23907 10.5313C0.438603 11.3294 -7.34162e-05 12.3882 9.21682e-09 13.5158L1.68991e-06 33.7124C-0.00161388 38.2775 1.78429 42.5723 5.02384 45.802C10.6383 51.3993 19.7742 51.3993 25.3887 45.802L38.7041 32.5271C40.432 30.8045 40.432 28.0027 38.7041 26.28ZM23.8221 44.2402C19.0708 48.977 11.3401 48.9754 6.58879 44.2386C3.76751 41.4259 2.21511 37.6886 2.2182 33.7124L2.21665 13.5143C2.21511 12.9786 2.42498 12.4726 2.81504 12.0838C3.60141 11.2998 4.87969 11.2998 5.66606 12.0838C6.15012 12.5663 6.5183 13.1614 6.73602 13.8095L9.45707 21.9447C9.57926 22.3071 9.88157 22.5834 10.2528 22.6694C10.6256 22.7569 11.0189 22.646 11.2899 22.3757L30.8714 2.85379C31.7346 1.99323 33.1397 1.99169 34.0044 2.85378C34.8692 3.71587 34.8675 5.11677 34.0044 5.97724L19.1225 20.8139C18.6901 21.245 18.6901 21.9447 19.1225 22.3757C19.5548 22.8068 20.2567 22.8068 20.689 22.3757L27.7384 15.3478C28.6016 14.4873 30.0067 14.4858 30.8714 15.3478C31.7361 16.2099 31.7345 17.6108 30.8714 18.4713L23.822 25.4992C23.3897 25.9302 23.3897 26.63 23.822 27.061C24.2544 27.4921 24.9562 27.492 25.3886 27.061L30.8714 21.5948C31.7346 20.7343 33.1397 20.7327 34.0044 21.5948C34.8692 22.4569 34.8675 23.8578 34.0044 24.7183L28.5216 30.1845C28.0892 30.6155 28.0892 31.3152 28.5216 31.7463C28.9539 32.1773 29.6558 32.1773 30.0882 31.7463L34.0045 27.8418C34.8677 26.9813 36.2728 26.9797 37.1375 27.8418C38.0022 28.7039 38.0006 30.1048 37.1375 30.9653L23.8221 44.2402Z" fill="black"/>
</svg>
