<svg width="25" height="27" viewBox="0 0 25 27" fill="none" xmlns="http://www.w3.org/2000/svg">
<path d="M24.7593 6.53579L12.7222 0.0543194C12.6552 0.0186527 12.5805 0 12.5046 0C12.4287 0 12.354 0.0186527 12.287 0.0543194L0.25 6.53579C0.175208 6.57454 0.112407 6.63297 0.0683564 6.70473C0.0243008 6.77653 0.000666667 6.85899 0 6.9432V19.9062C0.000222222 19.9899 0.0231621 20.072 0.0663704 20.1438C0.109583 20.2155 0.171445 20.2742 0.24537 20.3136L12.2824 26.7951C12.3494 26.8307 12.4241 26.8494 12.5 26.8494C12.5759 26.8494 12.6506 26.8307 12.7176 26.7951L24.7546 20.3136C24.8286 20.2742 24.8904 20.2155 24.9336 20.1438C24.9769 20.072 24.9998 19.9899 25 19.9062V6.9432C25.0002 6.85991 24.978 6.77811 24.9356 6.70644C24.8932 6.63473 24.8323 6.57579 24.7593 6.53579ZM12.5 0.989505L23.5648 6.9432L20.3241 8.68857L9.64352 2.52654L12.5 0.989505ZM1.43519 6.9432L4.9213 5.09135L15.5972 11.2302L12.5 12.8969L1.43519 6.9432ZM8.68518 3.04043L19.3657 9.20246L16.5556 10.7163L5.87963 4.54968L8.68518 3.04043ZM17.1713 11.4339L19.6898 10.0821V13.5358L18.7176 12.5728C18.6636 12.5192 18.5972 12.4797 18.5242 12.4578C18.4513 12.4359 18.3741 12.4324 18.2994 12.4475C18.2248 12.4626 18.155 12.4959 18.0964 12.5444C18.0377 12.5929 17.9918 12.6551 17.963 12.7256L17.1713 14.633V11.4339ZM0.925926 7.71635L12.037 13.7025V25.6145L0.925926 19.6284V7.71635ZM12.963 25.6145V13.7025L16.2454 11.9339V16.9617C16.2507 17.0654 16.2908 17.1643 16.3591 17.2424C16.4274 17.3206 16.52 17.3735 16.6219 17.3928C16.724 17.412 16.8295 17.3964 16.9215 17.3484C17.0136 17.3005 17.0869 17.223 17.1296 17.1284L18.5463 13.7071L19.8148 14.9663C19.8796 15.0317 19.9623 15.0762 20.0525 15.0943C20.1426 15.1124 20.2361 15.1032 20.3211 15.0679C20.406 15.0326 20.4785 14.9729 20.5293 14.8963C20.5801 14.8196 20.607 14.7296 20.6065 14.6376V9.58209L24.0694 7.73024V19.6284L12.963 25.6145Z" fill="black"/>
</svg>
