<svg width="25" height="25" viewBox="0 0 25 25" fill="none" xmlns="http://www.w3.org/2000/svg">
<path d="M21.875 7.28127H20.7031V3.26564C20.7027 2.95085 20.6261 2.64083 20.48 2.362C20.3339 2.08318 20.1225 1.8438 19.864 1.66425C19.6054 1.48471 19.3073 1.37033 18.995 1.33085C18.6827 1.29137 18.3654 1.32796 18.0703 1.43751L3.16406 7.28127H3.125C2.607 7.28127 2.11021 7.48705 1.74393 7.85334C1.37765 8.21959 1.17188 8.71638 1.17188 9.23439V21.7344C1.17188 22.2524 1.37765 22.7492 1.74393 23.1154C2.11021 23.4817 2.607 23.6875 3.125 23.6875H21.875C22.393 23.6875 22.8898 23.4817 23.2561 23.1154C23.6223 22.7492 23.8281 22.2524 23.8281 21.7344V9.23439C23.8281 8.71638 23.6223 8.21959 23.2561 7.85334C22.8898 7.48705 22.393 7.28127 21.875 7.28127ZM18.3594 2.16798C18.5355 2.10569 18.7241 2.08643 18.9092 2.11182C19.0944 2.1372 19.2707 2.2065 19.4237 2.31392C19.5766 2.42134 19.7016 2.56377 19.7882 2.72933C19.8749 2.89489 19.9207 3.07877 19.9219 3.26564V7.28127H5.30469L18.3594 2.16798ZM21.875 22.9063H3.125C2.8142 22.9063 2.51613 22.7828 2.29636 22.563C2.07659 22.3433 1.95312 22.0452 1.95312 21.7344V9.23439C1.95312 8.92357 2.07659 8.62552 2.29636 8.40576C2.51613 8.18599 2.8142 8.06252 3.125 8.06252H21.875C22.1858 8.06252 22.4839 8.18599 22.7036 8.40576C22.9234 8.62552 23.0469 8.92357 23.0469 9.23439V13.211H17.0742C16.9706 13.211 16.8713 13.2521 16.798 13.3254C16.7248 13.3986 16.6836 13.498 16.6836 13.6016V17.3672C16.6836 17.4708 16.7248 17.5702 16.798 17.6434C16.8713 17.7167 16.9706 17.7578 17.0742 17.7578H23.0469V21.7344C23.0469 22.0452 22.9234 22.3433 22.7036 22.563C22.4839 22.7828 22.1858 22.9063 21.875 22.9063ZM23.0469 16.9766H17.4648V13.9922H23.0469V16.9766Z" fill="black"/>
</svg>
