<svg width="27" height="25" viewBox="0 0 27 25" fill="none" xmlns="http://www.w3.org/2000/svg">
<path d="M5.94427 7.01238H19.0557C19.257 7.01238 19.4118 7.16718 19.4118 7.36842V20.031C19.4118 20.2322 19.257 20.387 19.0557 20.387H5.94427C5.74303 20.387 5.58824 20.2322 5.58824 20.031V7.36842C5.58824 7.16718 5.74303 7.01238 5.94427 7.01238ZM18.6997 7.72446H6.31579V19.6594H18.6997V7.72446Z" fill="black"/>
<path d="M19.3653 7.19814C19.4737 7.36842 19.3963 7.58514 19.226 7.67802C19.0557 7.7709 18.839 7.70898 18.7461 7.5387L17.5077 5.32508H7.49226L6.26935 7.5387C6.16099 7.70898 5.94427 7.7709 5.77399 7.67802C5.60372 7.58514 5.5418 7.36842 5.63468 7.19814L6.95047 4.81424C7.01238 4.6904 7.13622 4.613 7.27554 4.613H17.7245C17.8483 4.613 17.9721 4.67492 18.0341 4.79876L19.3653 7.19814Z" fill="black"/>
<path d="M13.483 5.03096C13.4365 4.82972 13.5759 4.64396 13.7616 4.613C13.9629 4.58204 14.1486 4.70588 14.1796 4.90712L14.6285 7.3065C14.6594 7.49226 14.5201 7.67802 14.3344 7.72446C14.1331 7.75542 13.9474 7.63158 13.9164 7.43034L13.483 5.03096ZM11.9814 7.43034C11.9505 7.63158 11.7647 7.75542 11.5635 7.72446C11.3777 7.67802 11.2384 7.49226 11.2694 7.3065L11.7183 4.90712C11.7492 4.70588 11.935 4.58204 12.1207 4.613C12.322 4.64396 12.4613 4.82972 12.4149 5.03096L11.9814 7.43034Z" fill="black"/>
<path d="M13.9164 7.36842C13.9164 7.16718 14.0867 7.01238 14.2724 7.01238C14.4737 7.01238 14.644 7.16718 14.644 7.36842V9.58204C14.644 9.78328 14.4737 9.95356 14.2724 9.95356H11.6254C11.4241 9.95356 11.2694 9.78328 11.2694 9.58204V7.36842C11.2694 7.16718 11.4241 7.01238 11.6254 7.01238C11.8266 7.01238 11.9969 7.16718 11.9969 7.36842V9.22601H13.9164V7.36842Z" fill="black"/>
<path d="M11.2694 9.58204C11.2694 9.38081 11.4241 9.22601 11.6254 9.22601C11.8266 9.22601 11.9969 9.38081 11.9969 9.58204V10.4489C11.9969 10.6347 11.8266 10.805 11.6254 10.805C11.4241 10.805 11.2694 10.6347 11.2694 10.4489V9.58204Z" fill="black"/>
<path d="M12.6006 9.58204C12.6006 9.38081 12.7554 9.22601 12.9567 9.22601C13.1579 9.22601 13.3127 9.38081 13.3127 9.58204V10.4489C13.3127 10.6347 13.1579 10.805 12.9567 10.805C12.7554 10.805 12.6006 10.6347 12.6006 10.4489V9.58204Z" fill="black"/>
<path d="M13.9164 9.58204C13.9164 9.38081 14.0867 9.22601 14.2724 9.22601C14.4737 9.22601 14.644 9.38081 14.644 9.58204L14.644 10.4489C14.644 10.6347 14.4737 10.805 14.2724 10.805C14.0867 10.805 13.9164 10.6347 13.9164 10.4489V9.58204Z" fill="black"/>
<path d="M7.50774 16.6718C7.3065 16.6718 7.13622 16.5015 7.13622 16.3003C7.13622 16.1145 7.3065 15.9443 7.50774 15.9443H12.3839C12.5851 15.9443 12.7554 16.1145 12.7554 16.3003C12.7554 16.5015 12.5851 16.6718 12.3839 16.6718H7.50774Z" fill="black"/>
<path d="M7.50774 17.8947C7.3065 17.8947 7.13622 17.7245 7.13622 17.5232C7.13622 17.322 7.3065 17.1672 7.50774 17.1672H12.3839C12.5851 17.1672 12.7554 17.322 12.7554 17.5232C12.7554 17.7245 12.5851 17.8947 12.3839 17.8947H7.50774Z" fill="black"/>
<path d="M7.50774 19.1176C7.3065 19.1176 7.13622 18.9474 7.13622 18.7461C7.13622 18.5449 7.3065 18.3901 7.50774 18.3901H11.2229C11.4241 18.3901 11.5789 18.5449 11.5789 18.7461C11.5789 18.9474 11.4241 19.1176 11.2229 19.1176H7.50774Z" fill="black"/>
<path d="M16.2229 16.0836H17.8328C18.0341 16.0836 18.2043 16.2539 18.2043 16.4396V18.6068C18.2043 18.8081 18.0341 18.9783 17.8328 18.9783H16.2229C16.0217 18.9783 15.8669 18.8081 15.8669 18.6068V16.4396C15.8669 16.2539 16.0217 16.0836 16.2229 16.0836ZM17.4768 16.8111H16.5944V18.2508H17.4768V16.8111Z" fill="black"/>
<path d="M24.257 13.3746C24.257 13.1734 24.4427 13.0186 24.6285 13.0341C24.8297 13.0495 24.9845 13.2198 24.969 13.4211C24.7368 16.6718 23.2508 19.5666 21.0062 21.6563C18.7771 23.7306 15.7895 25 12.5077 25C9.05573 25 5.92879 23.6068 3.66873 21.3313C1.39319 19.0712 0 15.9443 0 12.4923C0 9.04025 1.39319 5.91331 3.66873 3.65325C5.92879 1.39319 9.05573 0 12.5077 0C15.0619 0 17.4458 0.773994 19.4272 2.08978C21.4706 3.45201 23.096 5.40248 24.0557 7.70898C24.1331 7.87926 24.0402 8.09597 23.8545 8.17338C23.6687 8.25077 23.4675 8.15789 23.3901 7.97214C22.4768 5.82043 20.9598 3.97833 19.0248 2.6935C17.1672 1.43963 14.9226 0.712074 12.5077 0.712074C9.24149 0.712074 6.30031 2.04334 4.17957 4.16409C2.04334 6.30031 0.727554 9.24149 0.727554 12.4923C0.727554 15.743 2.04334 18.6997 4.17957 20.8204C6.30031 22.9567 9.24149 24.2724 12.5077 24.2724C15.6037 24.2724 18.4211 23.0805 20.5108 21.13C22.6316 19.1641 24.0248 16.4241 24.257 13.3746Z" fill="black"/>
<path d="M23.2043 15.1548C23.0495 15.2786 22.8173 15.2632 22.6935 15.1238C22.5542 14.969 22.5697 14.7523 22.709 14.613L24.3653 13.1269C24.5201 12.9876 24.7368 13.0031 24.8762 13.1579C24.8916 13.1579 24.8916 13.1734 24.8916 13.1734L26.3313 14.8607C26.4551 15 26.4396 15.2322 26.2848 15.3715C26.1455 15.4954 25.9133 15.4799 25.7895 15.3251L24.582 13.9164L23.2043 15.1548Z" fill="black"/>
</svg>
