<svg width="32" height="33" viewBox="0 0 32 33" fill="none" xmlns="http://www.w3.org/2000/svg">
<path d="M27 29.02V11.98C26.9992 11.3225 26.7377 10.6922 26.2727 10.2273C25.8078 9.76233 25.1775 9.50079 24.52 9.5H7.48C6.82251 9.50079 6.19217 9.76233 5.72725 10.2273C5.26233 10.6922 5.00079 11.3225 5 11.98V29.02C5.00079 29.6775 5.26233 30.3078 5.72725 30.7727C6.19217 31.2377 6.82251 31.4992 7.48 31.5H24.52C25.1775 31.4992 25.8078 31.2377 26.2727 30.7727C26.7377 30.3078 26.9992 29.6775 27 29.02ZM24.52 30.5H18.5V16.5H26V29.02C25.9995 29.4124 25.8434 29.7885 25.5659 30.0659C25.2885 30.3434 24.9124 30.4995 24.52 30.5ZM17.5 16.5V30.5H14.5V16.5H17.5ZM14.5 15.5V10.5H17.5V15.5H14.5ZM26 11.98V15.5H18.5V10.5H24.52C24.9124 10.5005 25.2885 10.6566 25.5659 10.9341C25.8434 11.2115 25.9995 11.5876 26 11.98ZM7.48 10.5H13.5V15.5H6V11.98C6.00053 11.5876 6.15663 11.2115 6.43407 10.9341C6.71151 10.6566 7.08764 10.5005 7.48 10.5ZM6 29.02V16.5H13.5V30.5H7.48C7.08764 30.4995 6.71151 30.3434 6.43407 30.0659C6.15663 29.7885 6.00053 29.4124 6 29.02Z" fill="#E70000"/>
<path d="M7.5 8.49974H24.5C25.4279 8.50079 26.3176 8.86988 26.9737 9.52603C27.6299 10.1822 27.9989 11.0718 28 11.9997H29C28.9985 10.8067 28.524 9.66296 27.6804 8.81936C26.8368 7.97576 25.693 7.50119 24.5 7.49974H21.445C21.801 7.15232 22.0787 6.73296 22.2597 6.26965C22.4407 5.80634 22.5207 5.30975 22.4945 4.81305C22.4682 4.31634 22.3363 3.83095 22.1075 3.38928C21.8788 2.94762 21.5584 2.55984 21.1678 2.25186C20.7772 1.94388 20.3254 1.72278 19.8426 1.60332C19.3597 1.48386 18.857 1.46879 18.3678 1.55912C17.8787 1.64945 17.4145 1.8431 17.0062 2.12714C16.5978 2.41118 16.2548 2.77906 16 3.20624C15.7452 2.77906 15.4022 2.41118 14.9938 2.12714C14.5855 1.8431 14.1213 1.64945 13.6322 1.55912C13.143 1.46879 12.6403 1.48386 12.1574 1.60332C11.6746 1.72278 11.2228 1.94388 10.8322 2.25186C10.4416 2.55984 10.1212 2.94762 9.89246 3.38928C9.66369 3.83095 9.53178 4.31634 9.50554 4.81305C9.4793 5.30975 9.55935 5.80634 9.74032 6.26965C9.9213 6.73296 10.199 7.15232 10.555 7.49974H7.5C6.30697 7.50119 5.16323 7.97576 4.31963 8.81936C3.47603 9.66296 3.00146 10.8067 3 11.9997H4C4.00106 11.0718 4.37015 10.1822 5.0263 9.52603C5.68244 8.86988 6.57207 8.50079 7.5 8.49974ZM19 2.49974C19.663 2.49974 20.2989 2.76313 20.7678 3.23197C21.2366 3.70081 21.5 4.3367 21.5 4.99974C21.5 5.66278 21.2366 6.29866 20.7678 6.7675C20.2989 7.23634 19.663 7.49974 19 7.49974H16.5V4.99974C16.5008 4.33694 16.7644 3.70152 17.2331 3.23285C17.7018 2.76418 18.3372 2.50053 19 2.49974ZM10.5 4.99974C10.5 4.3367 10.7634 3.70081 11.2322 3.23197C11.7011 2.76313 12.337 2.49974 13 2.49974C13.663 2.49974 14.2989 2.76313 14.7678 3.23197C15.2366 3.70081 15.5 4.3367 15.5 4.99974V7.49974H13C12.3372 7.49894 11.7018 7.2353 11.2331 6.76663C10.7644 6.29796 10.5008 5.66253 10.5 4.99974Z" fill="#E70000"/>
</svg>
