<svg width="30" height="30" viewBox="0 0 30 30" fill="none" xmlns="http://www.w3.org/2000/svg">
<path d="M19.2803 18.2197C18.9874 17.9268 18.5126 17.9268 18.2197 18.2197C17.9268 18.5126 17.9268 18.9874 18.2197 19.2803L19.2803 18.2197ZM25.7197 26.7803C26.0126 27.0732 26.4874 27.0732 26.7803 26.7803C27.0732 26.4874 27.0732 26.0126 26.7803 25.7197L25.7197 26.7803ZM12.5 20.5C8.08172 20.5 4.5 16.9183 4.5 12.5H3C3 17.7467 7.2533 22 12.5 22V20.5ZM20.5 12.5C20.5 16.9183 16.9183 20.5 12.5 20.5V22C17.7467 22 22 17.7467 22 12.5H20.5ZM12.5 4.5C16.9183 4.5 20.5 8.08172 20.5 12.5H22C22 7.2533 17.7467 3 12.5 3V4.5ZM12.5 3C7.2533 3 3 7.2533 3 12.5H4.5C4.5 8.08172 8.08172 4.5 12.5 4.5V3ZM18.2197 19.2803L25.7197 26.7803L26.7803 25.7197L19.2803 18.2197L18.2197 19.2803Z" fill="black"/>
</svg>
