<svg width="60" height="60" viewBox="0 0 60 60" fill="none" xmlns="http://www.w3.org/2000/svg">
<rect x="1" y="1" width="58" height="58" rx="11" fill="white" stroke="#D9D9D9" stroke-width="2"/>
<path d="M29.8889 20.3611C30.5792 20.3611 31.1389 19.8015 31.1389 19.1111C31.1389 18.4208 30.5792 17.8611 29.8889 17.8611V20.3611ZM21.3386 38.6165C21.8286 39.1028 22.62 39.0998 23.1063 38.6097C23.5926 38.1197 23.5896 37.3283 23.0995 36.842L21.3386 38.6165ZM27.2933 23.0844C26.9103 23.6588 27.0655 24.4349 27.64 24.8178C28.2144 25.2008 28.9905 25.0456 29.3734 24.4712L27.2933 23.0844ZM31.4444 19.1111L32.4845 19.8045C32.8674 19.2301 32.7122 18.454 32.1378 18.071L31.4444 19.1111ZM27.4712 14.9599C26.8967 14.577 26.1207 14.7322 25.7377 15.3066C25.3548 15.881 25.51 16.6571 26.0844 17.0401L27.4712 14.9599ZM29.8889 39.5903C29.1985 39.5903 28.6389 40.15 28.6389 40.8403C28.6389 41.5307 29.1985 42.0903 29.8889 42.0903V39.5903ZM38.4392 21.3349C37.9492 20.8486 37.1578 20.8517 36.6715 21.3417C36.1852 21.8317 36.1882 22.6232 36.6782 23.1095L38.4392 21.3349ZM32.4845 36.9156C32.8674 36.3412 32.7122 35.5651 32.1378 35.1822C31.5634 34.7992 30.7873 34.9544 30.4044 35.5288L32.4845 36.9156ZM28.3333 40.8889L27.2933 40.1955C26.9103 40.7699 27.0655 41.546 27.64 41.929L28.3333 40.8889ZM32.3066 45.0401C32.881 45.423 33.6571 45.2678 34.0401 44.6934C34.423 44.119 34.2678 43.3429 33.6934 42.9599L32.3066 45.0401ZM29.8889 17.8611C23.1848 17.8611 17.75 23.2959 17.75 30H20.25C20.25 24.6766 24.5655 20.3611 29.8889 20.3611V17.8611ZM17.75 30C17.75 33.3686 19.1238 36.4187 21.3386 38.6165L23.0995 36.842C21.3383 35.0943 20.25 32.6754 20.25 30H17.75ZM29.3734 24.4712L32.4845 19.8045L30.4044 18.4177L27.2933 23.0844L29.3734 24.4712ZM32.1378 18.071L27.4712 14.9599L26.0844 17.0401L30.7511 20.1512L32.1378 18.071ZM29.8889 42.0903C36.593 42.0903 42.0278 36.6556 42.0278 29.9514H39.5278C39.5278 35.2748 35.2123 39.5903 29.8889 39.5903V42.0903ZM42.0278 29.9514C42.0278 26.5828 40.654 23.5328 38.4392 21.3349L36.6782 23.1095C38.4394 24.8572 39.5278 27.276 39.5278 29.9514H42.0278ZM30.4044 35.5288L27.2933 40.1955L29.3734 41.5823L32.4845 36.9156L30.4044 35.5288ZM27.64 41.929L32.3066 45.0401L33.6934 42.9599L29.0267 39.8488L27.64 41.929Z" fill="black"/>
</svg>
