<svg width="60" height="60" viewBox="0 0 60 60" fill="none" xmlns="http://www.w3.org/2000/svg">
<rect x="1" y="1" width="58" height="58" rx="11" fill="white" stroke="#D9D9D9" stroke-width="2"/>
<path d="M40.5 25.2857L41.4257 24.4457C41.1888 24.1846 40.8526 24.0357 40.5 24.0357V25.2857ZM46 31.3469H47.25C47.25 31.0364 47.1344 30.7369 46.9257 30.507L46 31.3469ZM46 37.8571L46.0002 39.1071C46.6905 39.107 47.25 38.5474 47.25 37.8571H46ZM42.7232 37.8576L41.5445 38.2739L41.5445 38.2739L42.7232 37.8576ZM38.2768 37.8576L39.4555 38.2739V38.2739L38.2768 37.8576ZM35 25.2857V24.0357C34.3096 24.0357 33.75 24.5954 33.75 25.2857H35ZM13 17.75C12.3096 17.75 11.75 18.3096 11.75 19C11.75 19.6904 12.3096 20.25 13 20.25V17.75ZM35 19H36.25C36.25 18.3096 35.6904 17.75 35 17.75V19ZM17.7146 36.6071C17.0243 36.607 16.4645 37.1664 16.4643 37.8568C16.4641 38.5472 17.0236 39.107 17.7139 39.1071L17.7146 36.6071ZM18.5 29.6786C19.1904 29.6786 19.75 29.1189 19.75 28.4286C19.75 27.7382 19.1904 27.1786 18.5 27.1786V29.6786ZM16.1429 27.1786C15.4525 27.1786 14.8929 27.7382 14.8929 28.4286C14.8929 29.1189 15.4525 29.6786 16.1429 29.6786V27.1786ZM18.5 34.3929C19.1904 34.3929 19.75 33.8332 19.75 33.1429C19.75 32.4525 19.1904 31.8929 18.5 31.8929V34.3929ZM17.7143 31.8929C17.0239 31.8929 16.4643 32.4525 16.4643 33.1429C16.4643 33.8332 17.0239 34.3929 17.7143 34.3929V31.8929ZM18.5 24.9643C19.1904 24.9643 19.75 24.4046 19.75 23.7143C19.75 23.0239 19.1904 22.4643 18.5 22.4643V24.9643ZM14.5714 22.4643C13.8811 22.4643 13.3214 23.0239 13.3214 23.7143C13.3214 24.4046 13.8811 24.9643 14.5714 24.9643V22.4643ZM39.5743 26.1257L45.0743 32.1869L46.9257 30.507L41.4257 24.4457L39.5743 26.1257ZM44.75 31.3469V37.8571H47.25V31.3469H44.75ZM45.9998 36.6071L42.723 36.6076L42.7234 39.1076L46.0002 39.1071L45.9998 36.6071ZM43.9018 37.4413C43.4074 36.0416 42.0728 35.0357 40.5 35.0357V37.5357C40.9802 37.5357 41.392 37.8421 41.5445 38.2739L43.9018 37.4413ZM40.5 35.0357C38.9272 35.0357 37.5926 36.0416 37.0982 37.4413L39.4555 38.2739C39.608 37.8421 40.0198 37.5357 40.5 37.5357V35.0357ZM38.277 36.6076L35.0002 36.6071L34.9998 39.1071L38.2766 39.1076L38.277 36.6076ZM36.25 37.8571V25.2857H33.75V37.8571H36.25ZM35 26.5357H40.5V24.0357H35V26.5357ZM13 20.25H35V17.75H13V20.25ZM33.75 19V37.8571H36.25V19H33.75ZM34.9999 36.6071L23.866 36.6076L23.8661 39.1076L35.0001 39.1071L34.9999 36.6071ZM25.0447 37.4413C24.5503 36.0416 23.2156 35.0357 21.6429 35.0357V37.5357C22.123 37.5357 22.5349 37.8421 22.6874 38.2739L25.0447 37.4413ZM21.6429 35.0357C20.0701 35.0357 18.7354 36.0416 18.241 37.4413L20.5983 38.2739C20.7508 37.8421 21.1627 37.5357 21.6429 37.5357V35.0357ZM19.42 36.6076L17.7146 36.6071L17.7139 39.1071L19.4193 39.1076L19.42 36.6076ZM40.5 37.5357C41.1115 37.5357 41.6071 38.0314 41.6071 38.6429H44.1071C44.1071 36.6507 42.4922 35.0357 40.5 35.0357V37.5357ZM41.6071 38.6429C41.6071 39.2543 41.1115 39.75 40.5 39.75V42.25C42.4922 42.25 44.1071 40.635 44.1071 38.6429H41.6071ZM40.5 39.75C39.8885 39.75 39.3929 39.2543 39.3929 38.6429H36.8929C36.8929 40.635 38.5078 42.25 40.5 42.25V39.75ZM39.3929 38.6429C39.3929 38.0314 39.8885 37.5357 40.5 37.5357V35.0357C38.5078 35.0357 36.8929 36.6507 36.8929 38.6429H39.3929ZM21.6429 37.5357C22.2543 37.5357 22.75 38.0314 22.75 38.6429H25.25C25.25 36.6507 23.635 35.0357 21.6429 35.0357V37.5357ZM22.75 38.6429C22.75 39.2543 22.2543 39.75 21.6429 39.75V42.25C23.635 42.25 25.25 40.635 25.25 38.6429H22.75ZM21.6429 39.75C21.0314 39.75 20.5357 39.2543 20.5357 38.6429H18.0357C18.0357 40.635 19.6507 42.25 21.6429 42.25V39.75ZM20.5357 38.6429C20.5357 38.0314 21.0314 37.5357 21.6429 37.5357V35.0357C19.6507 35.0357 18.0357 36.6507 18.0357 38.6429H20.5357ZM18.5 27.1786H16.1429V29.6786H18.5V27.1786ZM18.5 31.8929H17.7143V34.3929H18.5V31.8929ZM18.5 22.4643H14.5714V24.9643H18.5V22.4643ZM37.0982 37.4413C36.9648 37.8188 36.8929 38.2238 36.8929 38.6429H39.3929C39.3929 38.5113 39.4153 38.3877 39.4555 38.2739L37.0982 37.4413ZM44.1071 38.6429C44.1071 38.2238 44.0352 37.8188 43.9018 37.4413L41.5445 38.2739C41.5847 38.3877 41.6071 38.5113 41.6071 38.6429H44.1071ZM18.241 37.4413C18.1077 37.8188 18.0357 38.2238 18.0357 38.6429H20.5357C20.5357 38.5113 20.5581 38.3877 20.5983 38.2739L18.241 37.4413ZM25.25 38.6429C25.25 38.2238 25.178 37.8188 25.0447 37.4413L22.6874 38.2739C22.7276 38.3877 22.75 38.5113 22.75 38.6429H25.25Z" fill="black"/>
</svg>
