<svg width="60" height="60" viewBox="0 0 60 60" fill="none" xmlns="http://www.w3.org/2000/svg">
<rect x="1" y="1" width="58" height="58" rx="11" fill="white" stroke="#D9D9D9" stroke-width="2"/>
<g clip-path="url(#clip0_137_82)">
<path d="M30.7992 31.7333C26.5992 31.7333 23.1867 28.2666 23.1867 23.9999C23.1867 19.7333 26.5992 16.2666 30.7992 16.2666C34.9992 16.2666 38.4117 19.7333 38.4117 23.9999C38.4117 28.2666 34.9992 31.7333 30.7992 31.7333ZM30.7992 18.1333C27.6492 18.1333 25.1555 20.6666 25.1555 23.8666C25.1555 27.0666 27.6492 29.5999 30.7992 29.5999C33.9492 29.5999 36.443 27.0666 36.443 23.8666C36.443 20.6666 33.9492 18.1333 30.7992 18.1333ZM43.6617 43.1999L41.8242 39.7333C41.1181 38.3722 40.0614 37.2316 38.7669 36.4331C37.4723 35.6347 35.9886 35.2085 34.4742 35.1999H25.6805C22.268 35.1999 19.2492 37.1999 17.9367 40.3999L16.7555 43.0666L14.918 42.2666L16.0992 39.5999C17.6742 35.7333 21.4805 33.1999 25.5492 33.1999H34.343C38.1492 33.1999 41.693 35.3333 43.5305 38.7999L45.368 42.2666L43.6617 43.1999Z" fill="black"/>
</g>
<defs>
<clipPath id="clip0_137_82">
<rect width="31.5" height="28" fill="white" transform="translate(14 16)"/>
</clipPath>
</defs>
</svg>
