<svg width="20" height="18" viewBox="0 0 20 18" fill="none" xmlns="http://www.w3.org/2000/svg">
<path d="M17.7984 0.199793L0.747201 7.45803C0.747201 7.45803 -0.0589555 7.75774 0.0034442 8.31051C0.0675239 8.86427 0.725361 9.11759 0.725361 9.11759L5.01582 10.6841C5.01582 10.6841 6.31086 15.2919 6.56574 16.1687C6.82061 17.043 7.02509 17.0636 7.02509 17.0636C7.26245 17.1755 7.47821 16.9973 7.47821 16.9973L10.2502 14.2558L14.5704 17.8498C15.739 18.4028 16.1643 17.2506 16.1643 17.2506L19.2 0.638429C19.2 -0.468103 17.7984 0.199793 17.7984 0.199793ZM14.7797 15.9146L10.1578 12.0707L8.72357 13.4887L9.03892 10.4718L15.1997 4.5L6.80189 9.59918L3.07687 8.23933L17.2889 2.18924L14.7797 15.9146Z" fill="#E70000"/>
</svg>
