<svg width="45" height="30" viewBox="0 0 45 30" fill="none" xmlns="http://www.w3.org/2000/svg">
<rect width="44.6341" height="30" rx="2" fill="white"/>
<path d="M27.5704 9.14334C25.1055 9.14334 22.9027 10.4314 22.9027 12.8113C22.9027 15.5405 26.8094 15.729 26.8094 17.1001C26.8094 17.6774 26.1532 18.1942 25.0324 18.1942C23.4418 18.1942 22.253 17.4721 22.253 17.4721L21.7443 19.8736C21.7443 19.8736 23.1138 20.4836 24.932 20.4836C27.627 20.4836 29.7476 19.1323 29.7476 16.7117C29.7476 13.8278 25.8246 13.6449 25.8246 12.3723C25.8246 11.92 26.3633 11.4245 27.4809 11.4245C28.7419 11.4245 29.7707 11.9497 29.7707 11.9497L30.2685 9.63021C30.2685 9.63021 29.1491 9.14334 27.5704 9.14334V9.14334ZM5.01867 9.3184L4.95898 9.66851C4.95898 9.66851 5.99599 9.85985 6.92997 10.2415C8.13256 10.6792 8.21823 10.934 8.42076 11.7254L10.6278 20.3031H13.5863L18.1441 9.3184H15.1924L12.2637 16.7869L11.0686 10.4563C10.959 9.73171 10.4039 9.3184 9.72435 9.3184H5.01867V9.3184ZM19.3311 9.3184L17.0155 20.3031H19.8303L22.1377 9.3184H19.3311V9.3184ZM35.0298 9.3184C34.3511 9.3184 33.9914 9.68476 33.7276 10.325L29.6038 20.3031H32.5555L33.1266 18.6401H36.7227L37.07 20.3031H39.6744L37.4023 9.3184H35.0298V9.3184ZM35.4137 12.2861L36.2886 16.4081H33.9446L35.4137 12.2861V12.2861Z" fill="black"/>
<rect x="0.5" y="0.5" width="43.6341" height="29" rx="1.5" stroke="black" stroke-opacity="0.2"/>
</svg>
